G04 #@! TF.GenerationSoftware,KiCad,Pcbnew,(5.1.4-0-10_14)*
G04 #@! TF.CreationDate,2019-11-04T12:37:15+13:00*
G04 #@! TF.ProjectId,rng-pcb,726e672d-7063-4622-9e6b-696361645f70,rev?*
G04 #@! TF.SameCoordinates,PX7bfa480PY77afa60*
G04 #@! TF.FileFunction,Legend,Bot*
G04 #@! TF.FilePolarity,Positive*
%FSLAX46Y46*%
G04 Gerber Fmt 4.6, Leading zero omitted, Abs format (unit mm)*
G04 Created by KiCad (PCBNEW (5.1.4-0-10_14)) date 2019-11-04 12:37:15*
%MOMM*%
%LPD*%
G04 APERTURE LIST*
%ADD10C,0.150000*%
%ADD11C,0.120000*%
G04 APERTURE END LIST*
D10*
X13588095Y45700000D02*
X13492857Y45652381D01*
X13350000Y45652381D01*
X13207142Y45700000D01*
X13111904Y45795239D01*
X13064285Y45890477D01*
X13016666Y46080953D01*
X13016666Y46223810D01*
X13064285Y46414286D01*
X13111904Y46509524D01*
X13207142Y46604762D01*
X13350000Y46652381D01*
X13445238Y46652381D01*
X13588095Y46604762D01*
X13635714Y46557143D01*
X13635714Y46223810D01*
X13445238Y46223810D01*
X14064285Y46652381D02*
X14064285Y45652381D01*
X14635714Y46652381D01*
X14635714Y45652381D01*
X15111904Y46652381D02*
X15111904Y45652381D01*
X15350000Y45652381D01*
X15492857Y45700000D01*
X15588095Y45795239D01*
X15635714Y45890477D01*
X15683333Y46080953D01*
X15683333Y46223810D01*
X15635714Y46414286D01*
X15588095Y46509524D01*
X15492857Y46604762D01*
X15350000Y46652381D01*
X15111904Y46652381D01*
X13111904Y48152381D02*
X13730952Y48152381D01*
X13397619Y48533334D01*
X13540476Y48533334D01*
X13635714Y48580953D01*
X13683333Y48628572D01*
X13730952Y48723810D01*
X13730952Y48961905D01*
X13683333Y49057143D01*
X13635714Y49104762D01*
X13540476Y49152381D01*
X13254761Y49152381D01*
X13159523Y49104762D01*
X13111904Y49057143D01*
X14016666Y48152381D02*
X14350000Y49152381D01*
X14683333Y48152381D01*
X14921428Y48152381D02*
X15540476Y48152381D01*
X15207142Y48533334D01*
X15350000Y48533334D01*
X15445238Y48580953D01*
X15492857Y48628572D01*
X15540476Y48723810D01*
X15540476Y48961905D01*
X15492857Y49057143D01*
X15445238Y49104762D01*
X15350000Y49152381D01*
X15064285Y49152381D01*
X14969047Y49104762D01*
X14921428Y49057143D01*
X13159523Y51704762D02*
X13302380Y51752381D01*
X13540476Y51752381D01*
X13635714Y51704762D01*
X13683333Y51657143D01*
X13730952Y51561905D01*
X13730952Y51466667D01*
X13683333Y51371429D01*
X13635714Y51323810D01*
X13540476Y51276191D01*
X13350000Y51228572D01*
X13254761Y51180953D01*
X13207142Y51133334D01*
X13159523Y51038096D01*
X13159523Y50942858D01*
X13207142Y50847620D01*
X13254761Y50800000D01*
X13350000Y50752381D01*
X13588095Y50752381D01*
X13730952Y50800000D01*
X14730952Y51657143D02*
X14683333Y51704762D01*
X14540476Y51752381D01*
X14445238Y51752381D01*
X14302380Y51704762D01*
X14207142Y51609524D01*
X14159523Y51514286D01*
X14111904Y51323810D01*
X14111904Y51180953D01*
X14159523Y50990477D01*
X14207142Y50895239D01*
X14302380Y50800000D01*
X14445238Y50752381D01*
X14540476Y50752381D01*
X14683333Y50800000D01*
X14730952Y50847620D01*
X15635714Y51752381D02*
X15159523Y51752381D01*
X15159523Y50752381D01*
X13135714Y54204762D02*
X13278571Y54252381D01*
X13516666Y54252381D01*
X13611904Y54204762D01*
X13659523Y54157143D01*
X13707142Y54061905D01*
X13707142Y53966667D01*
X13659523Y53871429D01*
X13611904Y53823810D01*
X13516666Y53776191D01*
X13326190Y53728572D01*
X13230952Y53680953D01*
X13183333Y53633334D01*
X13135714Y53538096D01*
X13135714Y53442858D01*
X13183333Y53347620D01*
X13230952Y53300000D01*
X13326190Y53252381D01*
X13564285Y53252381D01*
X13707142Y53300000D01*
X14135714Y54252381D02*
X14135714Y53252381D01*
X14373809Y53252381D01*
X14516666Y53300000D01*
X14611904Y53395239D01*
X14659523Y53490477D01*
X14707142Y53680953D01*
X14707142Y53823810D01*
X14659523Y54014286D01*
X14611904Y54109524D01*
X14516666Y54204762D01*
X14373809Y54252381D01*
X14135714Y54252381D01*
X15088095Y53966667D02*
X15564285Y53966667D01*
X14992857Y54252381D02*
X15326190Y53252381D01*
X15659523Y54252381D01*
X17945238Y43342858D02*
X17897619Y43485715D01*
X17897619Y43723810D01*
X17945238Y43819048D01*
X17992857Y43866667D01*
X18088095Y43914286D01*
X18183333Y43914286D01*
X18278571Y43866667D01*
X18326190Y43819048D01*
X18373809Y43723810D01*
X18421428Y43533334D01*
X18469047Y43438096D01*
X18516666Y43390477D01*
X18611904Y43342858D01*
X18707142Y43342858D01*
X18802380Y43390477D01*
X18850000Y43438096D01*
X18897619Y43533334D01*
X18897619Y43771429D01*
X18850000Y43914286D01*
X18897619Y44247620D02*
X17897619Y44485715D01*
X18611904Y44676191D01*
X17897619Y44866667D01*
X18897619Y45104762D01*
X17897619Y45485715D02*
X18897619Y45485715D01*
X18897619Y45723810D01*
X18850000Y45866667D01*
X18754761Y45961905D01*
X18659523Y46009524D01*
X18469047Y46057143D01*
X18326190Y46057143D01*
X18135714Y46009524D01*
X18040476Y45961905D01*
X17945238Y45866667D01*
X17897619Y45723810D01*
X17897619Y45485715D01*
X20095238Y43342858D02*
X20047619Y43485715D01*
X20047619Y43723810D01*
X20095238Y43819048D01*
X20142857Y43866667D01*
X20238095Y43914286D01*
X20333333Y43914286D01*
X20428571Y43866667D01*
X20476190Y43819048D01*
X20523809Y43723810D01*
X20571428Y43533334D01*
X20619047Y43438096D01*
X20666666Y43390477D01*
X20761904Y43342858D01*
X20857142Y43342858D01*
X20952380Y43390477D01*
X21000000Y43438096D01*
X21047619Y43533334D01*
X21047619Y43771429D01*
X21000000Y43914286D01*
X21047619Y44247620D02*
X20047619Y44485715D01*
X20761904Y44676191D01*
X20047619Y44866667D01*
X21047619Y45104762D01*
X20142857Y46057143D02*
X20095238Y46009524D01*
X20047619Y45866667D01*
X20047619Y45771429D01*
X20095238Y45628572D01*
X20190476Y45533334D01*
X20285714Y45485715D01*
X20476190Y45438096D01*
X20619047Y45438096D01*
X20809523Y45485715D01*
X20904761Y45533334D01*
X21000000Y45628572D01*
X21047619Y45771429D01*
X21047619Y45866667D01*
X21000000Y46009524D01*
X20952380Y46057143D01*
D11*
X19100000Y42000000D02*
G75*
G03X19100000Y42000000I-700000J0D01*
G01*
X21250000Y42000000D02*
G75*
G03X21250000Y42000000I-700000J0D01*
G01*
M02*
