G04 #@! TF.GenerationSoftware,KiCad,Pcbnew,(5.1.4-0-10_14)*
G04 #@! TF.CreationDate,2019-11-04T12:37:15+13:00*
G04 #@! TF.ProjectId,rng-pcb,726e672d-7063-4622-9e6b-696361645f70,rev?*
G04 #@! TF.SameCoordinates,PX7bfa480PY77afa60*
G04 #@! TF.FileFunction,Profile,NP*
%FSLAX46Y46*%
G04 Gerber Fmt 4.6, Leading zero omitted, Abs format (unit mm)*
G04 Created by KiCad (PCBNEW (5.1.4-0-10_14)) date 2019-11-04 12:37:15*
%MOMM*%
%LPD*%
G04 APERTURE LIST*
%ADD10C,0.150000*%
G04 APERTURE END LIST*
D10*
X55200000Y70500000D02*
X55200000Y66500000D01*
X6200000Y67500000D02*
G75*
G02X4700000Y69000000I0J1500000D01*
G01*
X51200000Y69000000D02*
G75*
G02X49700000Y67500000I-1500000J0D01*
G01*
X51200000Y70500000D02*
X51200000Y69000000D01*
X51200000Y70500000D02*
G75*
G02X55200000Y70500000I2000000J0D01*
G01*
X2700000Y64500000D02*
G75*
G02X700000Y66500000I0J2000000D01*
G01*
X700000Y69000000D02*
G75*
G02X4700000Y69000000I2000000J0D01*
G01*
X55200000Y66500000D02*
G75*
G02X53200000Y64500000I-2000000J0D01*
G01*
X49700000Y67500000D02*
X6200000Y67500000D01*
X700000Y69000000D02*
X700000Y66500000D01*
X55200000Y4000000D02*
X55200000Y6500000D01*
X50950000Y64500000D02*
X53200000Y64500000D01*
X2700000Y64500000D02*
X4950000Y64500000D01*
X2700000Y8500000D02*
X4950000Y8500000D01*
X50950000Y8500000D02*
X53200000Y8500000D01*
X50950000Y10500000D02*
X53250000Y10500000D01*
X4950000Y10500000D02*
X2750000Y10500000D01*
X2700000Y37500000D02*
X4950000Y37500000D01*
X4950000Y35500000D02*
X2750000Y35500000D01*
X50950000Y35500000D02*
X53250000Y35500000D01*
X53250000Y37500000D02*
X50950000Y37500000D01*
X50950000Y62500000D02*
X53250000Y62500000D01*
X4950000Y62500000D02*
X2700000Y62500000D01*
X4700000Y2500000D02*
X4700000Y4000000D01*
X4700000Y4000000D02*
G75*
G02X6200000Y5500000I1500000J0D01*
G01*
X49700000Y5500000D02*
G75*
G02X51200000Y4000000I0J-1500000D01*
G01*
X700000Y2500000D02*
X700000Y6500000D01*
X6200000Y5500000D02*
X49700000Y5500000D01*
X700000Y6500000D02*
G75*
G02X2700000Y8500000I2000000J0D01*
G01*
X53200000Y8500000D02*
G75*
G02X55200000Y6500000I0J-2000000D01*
G01*
X55200000Y4000000D02*
G75*
G02X51200000Y4000000I-2000000J0D01*
G01*
X4700000Y2500000D02*
G75*
G02X700000Y2500000I-2000000J0D01*
G01*
X5400000Y53950000D02*
X700000Y53950000D01*
X700000Y60500000D02*
X700000Y53950000D01*
X700000Y46050000D02*
X700000Y39500000D01*
X5400000Y46050000D02*
X700000Y46050000D01*
X6200000Y53150000D02*
X6200000Y46850000D01*
X6200000Y46850000D02*
G75*
G02X5400000Y46050000I-800000J0D01*
G01*
X5400000Y53950000D02*
G75*
G02X6200000Y53150000I0J-800000D01*
G01*
X4950000Y10500000D02*
G75*
G02X4950000Y8500000I0J-1000000D01*
G01*
X46950000Y10500000D02*
G75*
G02X46950000Y8500000I0J-1000000D01*
G01*
X50950000Y8500000D02*
G75*
G02X50950000Y10500000I0J1000000D01*
G01*
X8950000Y8500000D02*
G75*
G02X8950000Y10500000I0J1000000D01*
G01*
X8950000Y10500000D02*
X46950000Y10500000D01*
X46950000Y8500000D02*
X8950000Y8500000D01*
X7950000Y28000000D02*
X7950000Y18000000D01*
X9950000Y16000000D02*
X45950000Y16000000D01*
X9950000Y16000000D02*
G75*
G02X7950000Y18000000I0J2000000D01*
G01*
X47950000Y18000000D02*
G75*
G02X45950000Y16000000I-2000000J0D01*
G01*
X47950000Y28000000D02*
X47950000Y18000000D01*
X45950000Y30000000D02*
G75*
G02X47950000Y28000000I0J-2000000D01*
G01*
X9950000Y30000000D02*
X45950000Y30000000D01*
X7950000Y28000000D02*
G75*
G02X9950000Y30000000I2000000J0D01*
G01*
X46950000Y62500000D02*
X8950000Y62500000D01*
X8950000Y64500000D02*
X46950000Y64500000D01*
X8950000Y62500000D02*
G75*
G02X8950000Y64500000I0J1000000D01*
G01*
X50950000Y62500000D02*
G75*
G02X50950000Y64500000I0J1000000D01*
G01*
X46950000Y64500000D02*
G75*
G02X46950000Y62500000I0J-1000000D01*
G01*
X4950000Y64500000D02*
G75*
G02X4950000Y62500000I0J-1000000D01*
G01*
X46950000Y35500000D02*
X8950000Y35500000D01*
X8950000Y37500000D02*
X46950000Y37500000D01*
X8950000Y35500000D02*
G75*
G02X8950000Y37500000I0J1000000D01*
G01*
X46950000Y37500000D02*
G75*
G02X46950000Y35500000I0J-1000000D01*
G01*
X50950000Y35500000D02*
G75*
G02X50950000Y37500000I0J1000000D01*
G01*
X4950000Y37500000D02*
G75*
G02X4950000Y35500000I0J-1000000D01*
G01*
X750000Y33500000D02*
G75*
G02X2750000Y35500000I2000000J0D01*
G01*
X53250000Y35500000D02*
G75*
G02X55250000Y33500000I0J-2000000D01*
G01*
X55250000Y12500000D02*
G75*
G02X53250000Y10500000I-2000000J0D01*
G01*
X2750000Y10500000D02*
G75*
G02X750000Y12500000I0J2000000D01*
G01*
X55250000Y12500000D02*
X55250000Y33500000D01*
X750000Y33500000D02*
X750000Y12500000D01*
X55250000Y39500000D02*
X55250000Y60500000D01*
X2700000Y37500000D02*
G75*
G02X700000Y39500000I0J2000000D01*
G01*
X55250000Y39500000D02*
G75*
G02X53250000Y37500000I-2000000J0D01*
G01*
X53250000Y62500000D02*
G75*
G02X55250000Y60500000I0J-2000000D01*
G01*
X700000Y60500000D02*
G75*
G02X2700000Y62500000I2000000J0D01*
G01*
M02*
