G04 #@! TF.GenerationSoftware,KiCad,Pcbnew,(5.1.4-0-10_14)*
G04 #@! TF.CreationDate,2019-11-04T12:37:15+13:00*
G04 #@! TF.ProjectId,rng-pcb,726e672d-7063-4622-9e6b-696361645f70,rev?*
G04 #@! TF.SameCoordinates,PX7bfa480PY77afa60*
G04 #@! TF.FileFunction,Legend,Top*
G04 #@! TF.FilePolarity,Positive*
%FSLAX46Y46*%
G04 Gerber Fmt 4.6, Leading zero omitted, Abs format (unit mm)*
G04 Created by KiCad (PCBNEW (5.1.4-0-10_14)) date 2019-11-04 12:37:15*
%MOMM*%
%LPD*%
G04 APERTURE LIST*
%ADD10C,0.200000*%
%ADD11C,0.120000*%
%ADD12C,0.150000*%
G04 APERTURE END LIST*
D10*
X17000000Y58550000D02*
G75*
G03X17000000Y58550000I-100000J0D01*
G01*
X32200000Y43550000D02*
G75*
G03X32200000Y43550000I-100000J0D01*
G01*
D11*
X52050000Y52900000D02*
X54650000Y52900000D01*
X52050000Y47100000D02*
X54650000Y47100000D01*
X52050000Y47100000D02*
X52050000Y52900000D01*
X11780000Y44870000D02*
X10450000Y44870000D01*
X11780000Y46200000D02*
X11780000Y44870000D01*
X11780000Y47470000D02*
X9120000Y47470000D01*
X9120000Y47470000D02*
X9120000Y55150000D01*
X11780000Y47470000D02*
X11780000Y55150000D01*
X11780000Y55150000D02*
X9120000Y55150000D01*
D12*
X18875000Y58575000D02*
X18875000Y58525000D01*
X23025000Y58575000D02*
X23025000Y58430000D01*
X23025000Y53425000D02*
X23025000Y53570000D01*
X18875000Y53425000D02*
X18875000Y53570000D01*
X18875000Y58575000D02*
X23025000Y58575000D01*
X18875000Y53425000D02*
X23025000Y53425000D01*
X18875000Y58525000D02*
X17475000Y58525000D01*
D10*
X45750000Y53500000D02*
X45750000Y54070000D01*
X45750000Y55300000D02*
X45750000Y54730000D01*
X45750000Y53500000D02*
X44750000Y53500000D01*
X44150000Y55300000D02*
X45750000Y55300000D01*
X37650000Y55000000D02*
X37080000Y55000000D01*
X35850000Y55000000D02*
X36420000Y55000000D01*
X37650000Y55000000D02*
X37650000Y54000000D01*
X35850000Y53400000D02*
X35850000Y55000000D01*
X33150000Y55100000D02*
X33150000Y54530000D01*
X33150000Y53300000D02*
X33150000Y53870000D01*
X33150000Y55100000D02*
X34150000Y55100000D01*
X34750000Y53300000D02*
X33150000Y53300000D01*
D11*
X18020000Y49800000D02*
X18020000Y50800000D01*
X19380000Y50800000D02*
X19380000Y49800000D01*
X14650000Y57050000D02*
X14650000Y57750000D01*
X15850000Y57750000D02*
X15850000Y57050000D01*
X47830000Y52300000D02*
X47830000Y51300000D01*
X46470000Y51300000D02*
X46470000Y52300000D01*
X47830000Y57700000D02*
X47830000Y56700000D01*
X46470000Y56700000D02*
X46470000Y57700000D01*
X43330000Y57700000D02*
X43330000Y56700000D01*
X41970000Y56700000D02*
X41970000Y57700000D01*
X38130000Y57700000D02*
X38130000Y56700000D01*
X36770000Y56700000D02*
X36770000Y57700000D01*
X21630000Y50800000D02*
X21630000Y49800000D01*
X20270000Y49800000D02*
X20270000Y50800000D01*
X39800000Y55400000D02*
X40500000Y55400000D01*
X40500000Y54200000D02*
X39800000Y54200000D01*
X26950000Y57750000D02*
X26950000Y57050000D01*
X25750000Y57050000D02*
X25750000Y57750000D01*
X26950000Y54850000D02*
X26950000Y54150000D01*
X25750000Y54150000D02*
X25750000Y54850000D01*
X16300000Y42400000D02*
X15600000Y42400000D01*
X15600000Y43600000D02*
X16300000Y43600000D01*
X35550000Y42550000D02*
X35550000Y43250000D01*
X36750000Y43250000D02*
X36750000Y42550000D01*
X35950000Y50600000D02*
X35950000Y49900000D01*
X34750000Y49900000D02*
X34750000Y50600000D01*
X38400000Y42550000D02*
X38400000Y43250000D01*
X39600000Y43250000D02*
X39600000Y42550000D01*
X15850000Y54850000D02*
X15850000Y54150000D01*
X14650000Y54150000D02*
X14650000Y54850000D01*
X15300000Y51200000D02*
X16000000Y51200000D01*
X16000000Y50000000D02*
X15300000Y50000000D01*
D12*
X31475000Y43775000D02*
X31475000Y44000000D01*
X24225000Y43775000D02*
X24225000Y44100000D01*
X24225000Y51025000D02*
X24225000Y50700000D01*
X31475000Y51025000D02*
X31475000Y50700000D01*
X31475000Y43775000D02*
X31150000Y43775000D01*
X31475000Y51025000D02*
X31150000Y51025000D01*
X24225000Y51025000D02*
X24550000Y51025000D01*
X24225000Y43775000D02*
X24550000Y43775000D01*
X31475000Y44000000D02*
X32900000Y44000000D01*
D11*
X14290000Y47080000D02*
X14290000Y45320000D01*
X17360000Y45320000D02*
X17360000Y47750000D01*
D12*
X4416666Y45547620D02*
X4416666Y44833334D01*
X4369047Y44690477D01*
X4273809Y44595239D01*
X4130952Y44547620D01*
X4035714Y44547620D01*
X5416666Y44547620D02*
X4845238Y44547620D01*
X5130952Y44547620D02*
X5130952Y45547620D01*
X5035714Y45404762D01*
X4940476Y45309524D01*
X4845238Y45261905D01*
X51554761Y48666667D02*
X51602380Y48809524D01*
X51602380Y49047620D01*
X51554761Y49142858D01*
X51507142Y49190477D01*
X51411904Y49238096D01*
X51316666Y49238096D01*
X51221428Y49190477D01*
X51173809Y49142858D01*
X51126190Y49047620D01*
X51078571Y48857143D01*
X51030952Y48761905D01*
X50983333Y48714286D01*
X50888095Y48666667D01*
X50792857Y48666667D01*
X50697619Y48714286D01*
X50650000Y48761905D01*
X50602380Y48857143D01*
X50602380Y49095239D01*
X50650000Y49238096D01*
X50602380Y49571429D02*
X51602380Y49809524D01*
X50888095Y50000000D01*
X51602380Y50190477D01*
X50602380Y50428572D01*
X51602380Y51333334D02*
X51602380Y50761905D01*
X51602380Y51047620D02*
X50602380Y51047620D01*
X50745238Y50952381D01*
X50840476Y50857143D01*
X50888095Y50761905D01*
X10116666Y44417620D02*
X10116666Y43703334D01*
X10069047Y43560477D01*
X9973809Y43465239D01*
X9830952Y43417620D01*
X9735714Y43417620D01*
X10545238Y44322381D02*
X10592857Y44370000D01*
X10688095Y44417620D01*
X10926190Y44417620D01*
X11021428Y44370000D01*
X11069047Y44322381D01*
X11116666Y44227143D01*
X11116666Y44131905D01*
X11069047Y43989048D01*
X10497619Y43417620D01*
X11116666Y43417620D01*
X20188095Y53047620D02*
X20188095Y52238096D01*
X20235714Y52142858D01*
X20283333Y52095239D01*
X20378571Y52047620D01*
X20569047Y52047620D01*
X20664285Y52095239D01*
X20711904Y52142858D01*
X20759523Y52238096D01*
X20759523Y53047620D01*
X21188095Y52952381D02*
X21235714Y53000000D01*
X21330952Y53047620D01*
X21569047Y53047620D01*
X21664285Y53000000D01*
X21711904Y52952381D01*
X21759523Y52857143D01*
X21759523Y52761905D01*
X21711904Y52619048D01*
X21140476Y52047620D01*
X21759523Y52047620D01*
X43697619Y54304762D02*
X43650000Y54209524D01*
X43554761Y54114286D01*
X43411904Y53971429D01*
X43364285Y53876191D01*
X43364285Y53780953D01*
X43602380Y53828572D02*
X43554761Y53733334D01*
X43459523Y53638096D01*
X43269047Y53590477D01*
X42935714Y53590477D01*
X42745238Y53638096D01*
X42650000Y53733334D01*
X42602380Y53828572D01*
X42602380Y54019048D01*
X42650000Y54114286D01*
X42745238Y54209524D01*
X42935714Y54257143D01*
X43269047Y54257143D01*
X43459523Y54209524D01*
X43554761Y54114286D01*
X43602380Y54019048D01*
X43602380Y53828572D01*
X42602380Y54590477D02*
X42602380Y55209524D01*
X42983333Y54876191D01*
X42983333Y55019048D01*
X43030952Y55114286D01*
X43078571Y55161905D01*
X43173809Y55209524D01*
X43411904Y55209524D01*
X43507142Y55161905D01*
X43554761Y55114286D01*
X43602380Y55019048D01*
X43602380Y54733334D01*
X43554761Y54638096D01*
X43507142Y54590477D01*
X36654761Y51852381D02*
X36559523Y51900000D01*
X36464285Y51995239D01*
X36321428Y52138096D01*
X36226190Y52185715D01*
X36130952Y52185715D01*
X36178571Y51947620D02*
X36083333Y51995239D01*
X35988095Y52090477D01*
X35940476Y52280953D01*
X35940476Y52614286D01*
X35988095Y52804762D01*
X36083333Y52900000D01*
X36178571Y52947620D01*
X36369047Y52947620D01*
X36464285Y52900000D01*
X36559523Y52804762D01*
X36607142Y52614286D01*
X36607142Y52280953D01*
X36559523Y52090477D01*
X36464285Y51995239D01*
X36369047Y51947620D01*
X36178571Y51947620D01*
X36988095Y52852381D02*
X37035714Y52900000D01*
X37130952Y52947620D01*
X37369047Y52947620D01*
X37464285Y52900000D01*
X37511904Y52852381D01*
X37559523Y52757143D01*
X37559523Y52661905D01*
X37511904Y52519048D01*
X36940476Y51947620D01*
X37559523Y51947620D01*
X32597619Y54104762D02*
X32550000Y54009524D01*
X32454761Y53914286D01*
X32311904Y53771429D01*
X32264285Y53676191D01*
X32264285Y53580953D01*
X32502380Y53628572D02*
X32454761Y53533334D01*
X32359523Y53438096D01*
X32169047Y53390477D01*
X31835714Y53390477D01*
X31645238Y53438096D01*
X31550000Y53533334D01*
X31502380Y53628572D01*
X31502380Y53819048D01*
X31550000Y53914286D01*
X31645238Y54009524D01*
X31835714Y54057143D01*
X32169047Y54057143D01*
X32359523Y54009524D01*
X32454761Y53914286D01*
X32502380Y53819048D01*
X32502380Y53628572D01*
X32502380Y55009524D02*
X32502380Y54438096D01*
X32502380Y54723810D02*
X31502380Y54723810D01*
X31645238Y54628572D01*
X31740476Y54533334D01*
X31788095Y54438096D01*
X19152380Y47933334D02*
X18676190Y47600000D01*
X19152380Y47361905D02*
X18152380Y47361905D01*
X18152380Y47742858D01*
X18200000Y47838096D01*
X18247619Y47885715D01*
X18342857Y47933334D01*
X18485714Y47933334D01*
X18580952Y47885715D01*
X18628571Y47838096D01*
X18676190Y47742858D01*
X18676190Y47361905D01*
X18247619Y48314286D02*
X18200000Y48361905D01*
X18152380Y48457143D01*
X18152380Y48695239D01*
X18200000Y48790477D01*
X18247619Y48838096D01*
X18342857Y48885715D01*
X18438095Y48885715D01*
X18580952Y48838096D01*
X19152380Y48266667D01*
X19152380Y48885715D01*
X14107142Y57233334D02*
X14154761Y57185715D01*
X14202380Y57042858D01*
X14202380Y56947620D01*
X14154761Y56804762D01*
X14059523Y56709524D01*
X13964285Y56661905D01*
X13773809Y56614286D01*
X13630952Y56614286D01*
X13440476Y56661905D01*
X13345238Y56709524D01*
X13250000Y56804762D01*
X13202380Y56947620D01*
X13202380Y57042858D01*
X13250000Y57185715D01*
X13297619Y57233334D01*
X13297619Y57614286D02*
X13250000Y57661905D01*
X13202380Y57757143D01*
X13202380Y57995239D01*
X13250000Y58090477D01*
X13297619Y58138096D01*
X13392857Y58185715D01*
X13488095Y58185715D01*
X13630952Y58138096D01*
X14202380Y57566667D01*
X14202380Y58185715D01*
X46102380Y51633334D02*
X45626190Y51300000D01*
X46102380Y51061905D02*
X45102380Y51061905D01*
X45102380Y51442858D01*
X45150000Y51538096D01*
X45197619Y51585715D01*
X45292857Y51633334D01*
X45435714Y51633334D01*
X45530952Y51585715D01*
X45578571Y51538096D01*
X45626190Y51442858D01*
X45626190Y51061905D01*
X45102380Y52490477D02*
X45102380Y52300000D01*
X45150000Y52204762D01*
X45197619Y52157143D01*
X45340476Y52061905D01*
X45530952Y52014286D01*
X45911904Y52014286D01*
X46007142Y52061905D01*
X46054761Y52109524D01*
X46102380Y52204762D01*
X46102380Y52395239D01*
X46054761Y52490477D01*
X46007142Y52538096D01*
X45911904Y52585715D01*
X45673809Y52585715D01*
X45578571Y52538096D01*
X45530952Y52490477D01*
X45483333Y52395239D01*
X45483333Y52204762D01*
X45530952Y52109524D01*
X45578571Y52061905D01*
X45673809Y52014286D01*
X46102380Y57033334D02*
X45626190Y56700000D01*
X46102380Y56461905D02*
X45102380Y56461905D01*
X45102380Y56842858D01*
X45150000Y56938096D01*
X45197619Y56985715D01*
X45292857Y57033334D01*
X45435714Y57033334D01*
X45530952Y56985715D01*
X45578571Y56938096D01*
X45626190Y56842858D01*
X45626190Y56461905D01*
X45102380Y57938096D02*
X45102380Y57461905D01*
X45578571Y57414286D01*
X45530952Y57461905D01*
X45483333Y57557143D01*
X45483333Y57795239D01*
X45530952Y57890477D01*
X45578571Y57938096D01*
X45673809Y57985715D01*
X45911904Y57985715D01*
X46007142Y57938096D01*
X46054761Y57890477D01*
X46102380Y57795239D01*
X46102380Y57557143D01*
X46054761Y57461905D01*
X46007142Y57414286D01*
X41652380Y57033334D02*
X41176190Y56700000D01*
X41652380Y56461905D02*
X40652380Y56461905D01*
X40652380Y56842858D01*
X40700000Y56938096D01*
X40747619Y56985715D01*
X40842857Y57033334D01*
X40985714Y57033334D01*
X41080952Y56985715D01*
X41128571Y56938096D01*
X41176190Y56842858D01*
X41176190Y56461905D01*
X40985714Y57890477D02*
X41652380Y57890477D01*
X40604761Y57652381D02*
X41319047Y57414286D01*
X41319047Y58033334D01*
X36452380Y57033334D02*
X35976190Y56700000D01*
X36452380Y56461905D02*
X35452380Y56461905D01*
X35452380Y56842858D01*
X35500000Y56938096D01*
X35547619Y56985715D01*
X35642857Y57033334D01*
X35785714Y57033334D01*
X35880952Y56985715D01*
X35928571Y56938096D01*
X35976190Y56842858D01*
X35976190Y56461905D01*
X35452380Y57366667D02*
X35452380Y57985715D01*
X35833333Y57652381D01*
X35833333Y57795239D01*
X35880952Y57890477D01*
X35928571Y57938096D01*
X36023809Y57985715D01*
X36261904Y57985715D01*
X36357142Y57938096D01*
X36404761Y57890477D01*
X36452380Y57795239D01*
X36452380Y57509524D01*
X36404761Y57414286D01*
X36357142Y57366667D01*
X21452380Y47933334D02*
X20976190Y47600000D01*
X21452380Y47361905D02*
X20452380Y47361905D01*
X20452380Y47742858D01*
X20500000Y47838096D01*
X20547619Y47885715D01*
X20642857Y47933334D01*
X20785714Y47933334D01*
X20880952Y47885715D01*
X20928571Y47838096D01*
X20976190Y47742858D01*
X20976190Y47361905D01*
X21452380Y48885715D02*
X21452380Y48314286D01*
X21452380Y48600000D02*
X20452380Y48600000D01*
X20595238Y48504762D01*
X20690476Y48409524D01*
X20738095Y48314286D01*
X39507142Y52942858D02*
X39459523Y52895239D01*
X39316666Y52847620D01*
X39221428Y52847620D01*
X39078571Y52895239D01*
X38983333Y52990477D01*
X38935714Y53085715D01*
X38888095Y53276191D01*
X38888095Y53419048D01*
X38935714Y53609524D01*
X38983333Y53704762D01*
X39078571Y53800000D01*
X39221428Y53847620D01*
X39316666Y53847620D01*
X39459523Y53800000D01*
X39507142Y53752381D01*
X40459523Y52847620D02*
X39888095Y52847620D01*
X40173809Y52847620D02*
X40173809Y53847620D01*
X40078571Y53704762D01*
X39983333Y53609524D01*
X39888095Y53561905D01*
X41078571Y53847620D02*
X41173809Y53847620D01*
X41269047Y53800000D01*
X41316666Y53752381D01*
X41364285Y53657143D01*
X41411904Y53466667D01*
X41411904Y53228572D01*
X41364285Y53038096D01*
X41316666Y52942858D01*
X41269047Y52895239D01*
X41173809Y52847620D01*
X41078571Y52847620D01*
X40983333Y52895239D01*
X40935714Y52942858D01*
X40888095Y53038096D01*
X40840476Y53228572D01*
X40840476Y53466667D01*
X40888095Y53657143D01*
X40935714Y53752381D01*
X40983333Y53800000D01*
X41078571Y53847620D01*
X28207142Y57233334D02*
X28254761Y57185715D01*
X28302380Y57042858D01*
X28302380Y56947620D01*
X28254761Y56804762D01*
X28159523Y56709524D01*
X28064285Y56661905D01*
X27873809Y56614286D01*
X27730952Y56614286D01*
X27540476Y56661905D01*
X27445238Y56709524D01*
X27350000Y56804762D01*
X27302380Y56947620D01*
X27302380Y57042858D01*
X27350000Y57185715D01*
X27397619Y57233334D01*
X28302380Y57709524D02*
X28302380Y57900000D01*
X28254761Y57995239D01*
X28207142Y58042858D01*
X28064285Y58138096D01*
X27873809Y58185715D01*
X27492857Y58185715D01*
X27397619Y58138096D01*
X27350000Y58090477D01*
X27302380Y57995239D01*
X27302380Y57804762D01*
X27350000Y57709524D01*
X27397619Y57661905D01*
X27492857Y57614286D01*
X27730952Y57614286D01*
X27826190Y57661905D01*
X27873809Y57709524D01*
X27921428Y57804762D01*
X27921428Y57995239D01*
X27873809Y58090477D01*
X27826190Y58138096D01*
X27730952Y58185715D01*
X28207142Y54333334D02*
X28254761Y54285715D01*
X28302380Y54142858D01*
X28302380Y54047620D01*
X28254761Y53904762D01*
X28159523Y53809524D01*
X28064285Y53761905D01*
X27873809Y53714286D01*
X27730952Y53714286D01*
X27540476Y53761905D01*
X27445238Y53809524D01*
X27350000Y53904762D01*
X27302380Y54047620D01*
X27302380Y54142858D01*
X27350000Y54285715D01*
X27397619Y54333334D01*
X27730952Y54904762D02*
X27683333Y54809524D01*
X27635714Y54761905D01*
X27540476Y54714286D01*
X27492857Y54714286D01*
X27397619Y54761905D01*
X27350000Y54809524D01*
X27302380Y54904762D01*
X27302380Y55095239D01*
X27350000Y55190477D01*
X27397619Y55238096D01*
X27492857Y55285715D01*
X27540476Y55285715D01*
X27635714Y55238096D01*
X27683333Y55190477D01*
X27730952Y55095239D01*
X27730952Y54904762D01*
X27778571Y54809524D01*
X27826190Y54761905D01*
X27921428Y54714286D01*
X28111904Y54714286D01*
X28207142Y54761905D01*
X28254761Y54809524D01*
X28302380Y54904762D01*
X28302380Y55095239D01*
X28254761Y55190477D01*
X28207142Y55238096D01*
X28111904Y55285715D01*
X27921428Y55285715D01*
X27826190Y55238096D01*
X27778571Y55190477D01*
X27730952Y55095239D01*
X15783333Y41142858D02*
X15735714Y41095239D01*
X15592857Y41047620D01*
X15497619Y41047620D01*
X15354761Y41095239D01*
X15259523Y41190477D01*
X15211904Y41285715D01*
X15164285Y41476191D01*
X15164285Y41619048D01*
X15211904Y41809524D01*
X15259523Y41904762D01*
X15354761Y42000000D01*
X15497619Y42047620D01*
X15592857Y42047620D01*
X15735714Y42000000D01*
X15783333Y41952381D01*
X16116666Y42047620D02*
X16783333Y42047620D01*
X16354761Y41047620D01*
X38007142Y42733334D02*
X38054761Y42685715D01*
X38102380Y42542858D01*
X38102380Y42447620D01*
X38054761Y42304762D01*
X37959523Y42209524D01*
X37864285Y42161905D01*
X37673809Y42114286D01*
X37530952Y42114286D01*
X37340476Y42161905D01*
X37245238Y42209524D01*
X37150000Y42304762D01*
X37102380Y42447620D01*
X37102380Y42542858D01*
X37150000Y42685715D01*
X37197619Y42733334D01*
X37102380Y43590477D02*
X37102380Y43400000D01*
X37150000Y43304762D01*
X37197619Y43257143D01*
X37340476Y43161905D01*
X37530952Y43114286D01*
X37911904Y43114286D01*
X38007142Y43161905D01*
X38054761Y43209524D01*
X38102380Y43304762D01*
X38102380Y43495239D01*
X38054761Y43590477D01*
X38007142Y43638096D01*
X37911904Y43685715D01*
X37673809Y43685715D01*
X37578571Y43638096D01*
X37530952Y43590477D01*
X37483333Y43495239D01*
X37483333Y43304762D01*
X37530952Y43209524D01*
X37578571Y43161905D01*
X37673809Y43114286D01*
X34207142Y50083334D02*
X34254761Y50035715D01*
X34302380Y49892858D01*
X34302380Y49797620D01*
X34254761Y49654762D01*
X34159523Y49559524D01*
X34064285Y49511905D01*
X33873809Y49464286D01*
X33730952Y49464286D01*
X33540476Y49511905D01*
X33445238Y49559524D01*
X33350000Y49654762D01*
X33302380Y49797620D01*
X33302380Y49892858D01*
X33350000Y50035715D01*
X33397619Y50083334D01*
X33302380Y50988096D02*
X33302380Y50511905D01*
X33778571Y50464286D01*
X33730952Y50511905D01*
X33683333Y50607143D01*
X33683333Y50845239D01*
X33730952Y50940477D01*
X33778571Y50988096D01*
X33873809Y51035715D01*
X34111904Y51035715D01*
X34207142Y50988096D01*
X34254761Y50940477D01*
X34302380Y50845239D01*
X34302380Y50607143D01*
X34254761Y50511905D01*
X34207142Y50464286D01*
X40857142Y42733334D02*
X40904761Y42685715D01*
X40952380Y42542858D01*
X40952380Y42447620D01*
X40904761Y42304762D01*
X40809523Y42209524D01*
X40714285Y42161905D01*
X40523809Y42114286D01*
X40380952Y42114286D01*
X40190476Y42161905D01*
X40095238Y42209524D01*
X40000000Y42304762D01*
X39952380Y42447620D01*
X39952380Y42542858D01*
X40000000Y42685715D01*
X40047619Y42733334D01*
X40285714Y43590477D02*
X40952380Y43590477D01*
X39904761Y43352381D02*
X40619047Y43114286D01*
X40619047Y43733334D01*
X14107142Y54333334D02*
X14154761Y54285715D01*
X14202380Y54142858D01*
X14202380Y54047620D01*
X14154761Y53904762D01*
X14059523Y53809524D01*
X13964285Y53761905D01*
X13773809Y53714286D01*
X13630952Y53714286D01*
X13440476Y53761905D01*
X13345238Y53809524D01*
X13250000Y53904762D01*
X13202380Y54047620D01*
X13202380Y54142858D01*
X13250000Y54285715D01*
X13297619Y54333334D01*
X13202380Y54666667D02*
X13202380Y55285715D01*
X13583333Y54952381D01*
X13583333Y55095239D01*
X13630952Y55190477D01*
X13678571Y55238096D01*
X13773809Y55285715D01*
X14011904Y55285715D01*
X14107142Y55238096D01*
X14154761Y55190477D01*
X14202380Y55095239D01*
X14202380Y54809524D01*
X14154761Y54714286D01*
X14107142Y54666667D01*
X15483333Y51742858D02*
X15435714Y51695239D01*
X15292857Y51647620D01*
X15197619Y51647620D01*
X15054761Y51695239D01*
X14959523Y51790477D01*
X14911904Y51885715D01*
X14864285Y52076191D01*
X14864285Y52219048D01*
X14911904Y52409524D01*
X14959523Y52504762D01*
X15054761Y52600000D01*
X15197619Y52647620D01*
X15292857Y52647620D01*
X15435714Y52600000D01*
X15483333Y52552381D01*
X16435714Y51647620D02*
X15864285Y51647620D01*
X16150000Y51647620D02*
X16150000Y52647620D01*
X16054761Y52504762D01*
X15959523Y52409524D01*
X15864285Y52361905D01*
X33388095Y43447620D02*
X33388095Y42638096D01*
X33435714Y42542858D01*
X33483333Y42495239D01*
X33578571Y42447620D01*
X33769047Y42447620D01*
X33864285Y42495239D01*
X33911904Y42542858D01*
X33959523Y42638096D01*
X33959523Y43447620D01*
X34340476Y43447620D02*
X34959523Y43447620D01*
X34626190Y43066667D01*
X34769047Y43066667D01*
X34864285Y43019048D01*
X34911904Y42971429D01*
X34959523Y42876191D01*
X34959523Y42638096D01*
X34911904Y42542858D01*
X34864285Y42495239D01*
X34769047Y42447620D01*
X34483333Y42447620D01*
X34388095Y42495239D01*
X34340476Y42542858D01*
X17752380Y45438096D02*
X18561904Y45438096D01*
X18657142Y45485715D01*
X18704761Y45533334D01*
X18752380Y45628572D01*
X18752380Y45819048D01*
X18704761Y45914286D01*
X18657142Y45961905D01*
X18561904Y46009524D01*
X17752380Y46009524D01*
X18752380Y47009524D02*
X18752380Y46438096D01*
X18752380Y46723810D02*
X17752380Y46723810D01*
X17895238Y46628572D01*
X17990476Y46533334D01*
X18038095Y46438096D01*
M02*
