M48
; DRILL file {KiCad (5.1.4-0-10_14)} date Monday, 04 November 2019 at 12:37:18 pm
; FORMAT={2:4/ absolute / inch / suppress leading zeros}
; #@! TF.CreationDate,2019-11-04T12:37:18+13:00
; #@! TF.GenerationSoftware,Kicad,Pcbnew,(5.1.4-0-10_14)
FMAT,2
INCH,TZ
T1C0.0100
T2C0.0236
T3C0.0256
T4C0.0276
T5C0.0394
T6C0.0197
%
G90
G05
T1
X3268Y19685
X3386Y20413
X3524Y19941
X5866Y20433
X6240Y19331
X7362Y19823
X7362Y18533
X8248Y19823
X8661Y22559
X8740Y17874
X8740Y17559
X10177Y16122
X10945Y22303
X11122Y19587
X11437Y19823
X11752Y18661
X11752Y16519
X12067Y17953
X12362Y16988
X13189Y18189
X14285Y17969
X14813Y16594
X15335Y20079
X15807Y22815
X18563Y21417
X19862Y19685
T3
X21358Y20482
X21358Y18888
T4
X1063Y2559
X20965Y15551
X20965Y4921
X20965Y13189
X1063Y15551
X1083Y4921
X1083Y13189
X1063Y26181
X1063Y23819
X20945Y2559
X20945Y26181
X20965Y23819
T5
X4114Y21189
X4114Y20189
X4114Y19189
X4114Y18189
T6
X2441Y25295
X2441Y24705
X2736Y25295
X2736Y24705
X3031Y25295
X3031Y24705
X18976Y4035
X18976Y3445
X19272Y4035
X19272Y3445
X19567Y4035
X19272Y25295
X19272Y24705
X19567Y25295
X19567Y3445
X18976Y25295
X18976Y24705
X19567Y24705
X2441Y4035
X2441Y3445
X2736Y4035
X2736Y3445
X3031Y4035
X3031Y3445
X2441Y14665
X2441Y14075
X2736Y14665
X2736Y14075
X3031Y14665
X3031Y14075
X18976Y14665
X18976Y14075
X19272Y14665
X19272Y14075
X19567Y14665
X19567Y14075
T2
G00X1280Y21634
M15
G01X807Y21634
M16
G05
G00X1280Y17736
M15
G01X807Y17736
M16
G05
G00X2795Y21634
M15
G01X2441Y21634
M16
G05
G00X2795Y17736
M15
G01X2441Y17736
M16
G05
T0
M30
