G04 #@! TF.GenerationSoftware,KiCad,Pcbnew,(5.1.4-0-10_14)*
G04 #@! TF.CreationDate,2019-11-04T12:37:15+13:00*
G04 #@! TF.ProjectId,rng-pcb,726e672d-7063-4622-9e6b-696361645f70,rev?*
G04 #@! TF.SameCoordinates,PX7bfa480PY77afa60*
G04 #@! TF.FileFunction,Copper,L2,Bot*
G04 #@! TF.FilePolarity,Positive*
%FSLAX46Y46*%
G04 Gerber Fmt 4.6, Leading zero omitted, Abs format (unit mm)*
G04 Created by KiCad (PCBNEW (5.1.4-0-10_14)) date 2019-11-04 12:37:15*
%MOMM*%
%LPD*%
G04 APERTURE LIST*
%ADD10C,1.500000*%
%ADD11O,2.400000X1.200000*%
%ADD12O,2.100000X1.200000*%
%ADD13R,1.000000X1.600000*%
%ADD14C,1.000000*%
%ADD15O,1.700000X1.700000*%
%ADD16R,1.700000X1.700000*%
%ADD17C,0.508000*%
%ADD18C,0.304800*%
%ADD19C,0.254000*%
G04 APERTURE END LIST*
D10*
X53200000Y6500000D03*
X2700000Y6500000D03*
X53250000Y12500000D03*
X2750000Y12500000D03*
X2700000Y66500000D03*
X53200000Y66500000D03*
X53250000Y39500000D03*
X2700000Y39500000D03*
D11*
X2650000Y54950000D03*
D12*
X6650000Y54950000D03*
D11*
X2650000Y45050000D03*
D12*
X6650000Y45050000D03*
D13*
X54150000Y51900000D03*
X54150000Y48100000D03*
D10*
X53250000Y33500000D03*
X2750000Y33500000D03*
X2700000Y60500000D03*
X53250000Y60500000D03*
D14*
X18400000Y42000000D03*
X20550000Y42000000D03*
D15*
X10450000Y53820000D03*
X10450000Y51280000D03*
X10450000Y48740000D03*
D16*
X10450000Y46200000D03*
D17*
X27800000Y56650000D03*
X40150000Y57950000D03*
X30650000Y45600000D03*
X18700000Y47075000D03*
X36285100Y45641200D03*
X8950000Y50650000D03*
X22200000Y45400000D03*
X8300000Y50000000D03*
X22200000Y44600000D03*
X47150000Y54400000D03*
X33500000Y46200000D03*
X50450000Y50000000D03*
X25850000Y40950000D03*
X15850000Y49100000D03*
X22000000Y57300000D03*
X37625000Y42150000D03*
X29850000Y47400000D03*
X38950000Y51000000D03*
X8600000Y51850000D03*
X14900000Y51900000D03*
X20950000Y50350000D03*
X29050000Y50350000D03*
X18700000Y50350000D03*
X28250000Y49750000D03*
X31400000Y43150000D03*
X29850000Y41958800D03*
D18*
X27800000Y56650000D02*
X29100000Y57950000D01*
X29100000Y57950000D02*
X40150000Y57950000D01*
X30154001Y46095999D02*
X30396001Y45853999D01*
X30396001Y45853999D02*
X30650000Y45600000D01*
X19679001Y46095999D02*
X30154001Y46095999D01*
X18700000Y47075000D02*
X19679001Y46095999D01*
X30650000Y45600000D02*
X36243900Y45600000D01*
X36243900Y45600000D02*
X36285100Y45641200D01*
X9356159Y45045199D02*
X21845199Y45045199D01*
X21946001Y45146001D02*
X22200000Y45400000D01*
X21845199Y45045199D02*
X21946001Y45146001D01*
X8950000Y45451358D02*
X9356159Y45045199D01*
X8950000Y50650000D02*
X8950000Y45451358D01*
X21946001Y44346001D02*
X22200000Y44600000D01*
X9408765Y44346001D02*
X21946001Y44346001D01*
X8300000Y45454766D02*
X9408765Y44346001D01*
X8300000Y50000000D02*
X8300000Y45454766D01*
X47150000Y54400000D02*
X38950000Y46200000D01*
X38950000Y46200000D02*
X33500000Y46200000D01*
X25850000Y40950000D02*
X41400000Y40950000D01*
X50450000Y50000000D02*
X41400000Y40950000D01*
X14365199Y52434801D02*
X14900000Y51900000D01*
X9184801Y52434801D02*
X14365199Y52434801D01*
X8600000Y51850000D02*
X9184801Y52434801D01*
X29050000Y50350000D02*
X20950000Y50350000D01*
X17480000Y53820000D02*
X20950000Y50350000D01*
X10450000Y53820000D02*
X17480000Y53820000D01*
X18953999Y50096001D02*
X18700000Y50350000D01*
X19553999Y49496001D02*
X18953999Y50096001D01*
X27996001Y49496001D02*
X19553999Y49496001D01*
X28250000Y49750000D02*
X27996001Y49496001D01*
X17770000Y51280000D02*
X18700000Y50350000D01*
X10450000Y51280000D02*
X17770000Y51280000D01*
X19550000Y43150000D02*
X18400000Y42000000D01*
X31400000Y43150000D02*
X19550000Y43150000D01*
X20591200Y41958800D02*
X20550000Y42000000D01*
X29850000Y41958800D02*
X20591200Y41958800D01*
D19*
G36*
X50235606Y61948561D02*
G01*
X50295076Y61924049D01*
X50354248Y61898688D01*
X50363718Y61895757D01*
X50550554Y61839348D01*
X50613684Y61826848D01*
X50676623Y61813470D01*
X50686481Y61812434D01*
X50880209Y61793439D01*
X50915123Y61790000D01*
X52745157Y61790000D01*
X52593957Y61727371D01*
X52367114Y61575799D01*
X52174201Y61382886D01*
X52022629Y61156043D01*
X51918225Y60903989D01*
X51865000Y60636411D01*
X51865000Y60363589D01*
X51918225Y60096011D01*
X52022629Y59843957D01*
X52174201Y59617114D01*
X52367114Y59424201D01*
X52593957Y59272629D01*
X52846011Y59168225D01*
X53113589Y59115000D01*
X53386411Y59115000D01*
X53653989Y59168225D01*
X53906043Y59272629D01*
X54132886Y59424201D01*
X54325799Y59617114D01*
X54477371Y59843957D01*
X54540001Y59995159D01*
X54540001Y53336495D01*
X54435750Y53335000D01*
X54277000Y53176250D01*
X54277000Y52027000D01*
X54297000Y52027000D01*
X54297000Y51773000D01*
X54277000Y51773000D01*
X54277000Y50623750D01*
X54435750Y50465000D01*
X54540001Y50463505D01*
X54540000Y49536495D01*
X54435750Y49535000D01*
X54277000Y49376250D01*
X54277000Y48227000D01*
X54297000Y48227000D01*
X54297000Y47973000D01*
X54277000Y47973000D01*
X54277000Y46823750D01*
X54435750Y46665000D01*
X54540000Y46663505D01*
X54540000Y40004843D01*
X54477371Y40156043D01*
X54325799Y40382886D01*
X54132886Y40575799D01*
X53906043Y40727371D01*
X53653989Y40831775D01*
X53386411Y40885000D01*
X53113589Y40885000D01*
X52846011Y40831775D01*
X52593957Y40727371D01*
X52367114Y40575799D01*
X52174201Y40382886D01*
X52022629Y40156043D01*
X51918225Y39903989D01*
X51865000Y39636411D01*
X51865000Y39363589D01*
X51918225Y39096011D01*
X52022629Y38843957D01*
X52174201Y38617114D01*
X52367114Y38424201D01*
X52593957Y38272629D01*
X52745157Y38210000D01*
X50915123Y38210000D01*
X50879738Y38206515D01*
X50866754Y38206515D01*
X50856895Y38205478D01*
X50662945Y38183723D01*
X50600016Y38170347D01*
X50536873Y38157844D01*
X50527403Y38154913D01*
X50341373Y38095900D01*
X50282252Y38070560D01*
X50222733Y38046028D01*
X50214012Y38041313D01*
X50156223Y38009543D01*
X50119205Y38034277D01*
X49958145Y38100990D01*
X49787165Y38135000D01*
X49612835Y38135000D01*
X49441855Y38100990D01*
X49325000Y38052587D01*
X49208145Y38100990D01*
X49037165Y38135000D01*
X48862835Y38135000D01*
X48691855Y38100990D01*
X48575000Y38052587D01*
X48458145Y38100990D01*
X48287165Y38135000D01*
X48112835Y38135000D01*
X47941855Y38100990D01*
X47780795Y38034277D01*
X47743517Y38009369D01*
X47664394Y38051439D01*
X47604924Y38075951D01*
X47545752Y38101312D01*
X47536282Y38104243D01*
X47349446Y38160652D01*
X47286316Y38173152D01*
X47223377Y38186530D01*
X47213518Y38187566D01*
X47019792Y38206561D01*
X46984877Y38210000D01*
X8915123Y38210000D01*
X8879738Y38206515D01*
X8866754Y38206515D01*
X8856895Y38205478D01*
X8662945Y38183723D01*
X8600016Y38170347D01*
X8536873Y38157844D01*
X8527403Y38154913D01*
X8341373Y38095900D01*
X8282252Y38070560D01*
X8222733Y38046028D01*
X8214012Y38041313D01*
X8156223Y38009543D01*
X8119205Y38034277D01*
X7958145Y38100990D01*
X7787165Y38135000D01*
X7612835Y38135000D01*
X7441855Y38100990D01*
X7325000Y38052587D01*
X7208145Y38100990D01*
X7037165Y38135000D01*
X6862835Y38135000D01*
X6691855Y38100990D01*
X6575000Y38052587D01*
X6458145Y38100990D01*
X6287165Y38135000D01*
X6112835Y38135000D01*
X5941855Y38100990D01*
X5780795Y38034277D01*
X5743517Y38009369D01*
X5664394Y38051439D01*
X5604924Y38075951D01*
X5545752Y38101312D01*
X5536282Y38104243D01*
X5349446Y38160652D01*
X5286316Y38173152D01*
X5223377Y38186530D01*
X5213518Y38187566D01*
X5019792Y38206561D01*
X4984877Y38210000D01*
X3204843Y38210000D01*
X3356043Y38272629D01*
X3582886Y38424201D01*
X3775799Y38617114D01*
X3927371Y38843957D01*
X4031775Y39096011D01*
X4085000Y39363589D01*
X4085000Y39636411D01*
X4031775Y39903989D01*
X3927371Y40156043D01*
X3775799Y40382886D01*
X3582886Y40575799D01*
X3356043Y40727371D01*
X3103989Y40831775D01*
X2836411Y40885000D01*
X2563589Y40885000D01*
X2296011Y40831775D01*
X2043957Y40727371D01*
X1817114Y40575799D01*
X1624201Y40382886D01*
X1472629Y40156043D01*
X1410000Y40004843D01*
X1410000Y43991367D01*
X1460054Y43957610D01*
X1684504Y43863507D01*
X1923000Y43815000D01*
X2523000Y43815000D01*
X2523000Y44923000D01*
X2777000Y44923000D01*
X2777000Y43815000D01*
X3377000Y43815000D01*
X3615496Y43863507D01*
X3839946Y43957610D01*
X4041725Y44093693D01*
X4213078Y44266526D01*
X4347421Y44469467D01*
X4439591Y44694718D01*
X4443462Y44732391D01*
X5006538Y44732391D01*
X5010409Y44694718D01*
X5102579Y44469467D01*
X5236922Y44266526D01*
X5408275Y44093693D01*
X5610054Y43957610D01*
X5834504Y43863507D01*
X6073000Y43815000D01*
X6523000Y43815000D01*
X6523000Y44923000D01*
X5131269Y44923000D01*
X5006538Y44732391D01*
X4443462Y44732391D01*
X4318731Y44923000D01*
X2777000Y44923000D01*
X2523000Y44923000D01*
X2503000Y44923000D01*
X2503000Y45177000D01*
X2523000Y45177000D01*
X2523000Y45197000D01*
X2777000Y45197000D01*
X2777000Y45177000D01*
X4318731Y45177000D01*
X4425395Y45340000D01*
X5024605Y45340000D01*
X5131269Y45177000D01*
X6523000Y45177000D01*
X6523000Y45197000D01*
X6777000Y45197000D01*
X6777000Y45177000D01*
X6797000Y45177000D01*
X6797000Y44923000D01*
X6777000Y44923000D01*
X6777000Y43815000D01*
X7227000Y43815000D01*
X7465496Y43863507D01*
X7689946Y43957610D01*
X7891725Y44093693D01*
X8063078Y44266526D01*
X8187195Y44454020D01*
X8824646Y43816568D01*
X8849296Y43786532D01*
X8879332Y43761882D01*
X8879335Y43761879D01*
X8969193Y43688135D01*
X9105982Y43615019D01*
X9254408Y43569995D01*
X9408765Y43554792D01*
X9447438Y43558601D01*
X18845049Y43558601D01*
X18421449Y43135000D01*
X18288212Y43135000D01*
X18068933Y43091383D01*
X17862376Y43005824D01*
X17676480Y42881612D01*
X17518388Y42723520D01*
X17394176Y42537624D01*
X17308617Y42331067D01*
X17265000Y42111788D01*
X17265000Y41888212D01*
X17308617Y41668933D01*
X17394176Y41462376D01*
X17518388Y41276480D01*
X17676480Y41118388D01*
X17862376Y40994176D01*
X18068933Y40908617D01*
X18288212Y40865000D01*
X18511788Y40865000D01*
X18731067Y40908617D01*
X18937624Y40994176D01*
X19123520Y41118388D01*
X19281612Y41276480D01*
X19405824Y41462376D01*
X19475000Y41629381D01*
X19544176Y41462376D01*
X19668388Y41276480D01*
X19826480Y41118388D01*
X20012376Y40994176D01*
X20218933Y40908617D01*
X20438212Y40865000D01*
X20661788Y40865000D01*
X20881067Y40908617D01*
X21087624Y40994176D01*
X21273520Y41118388D01*
X21326532Y41171400D01*
X24987623Y41171400D01*
X24961000Y41037559D01*
X24961000Y40862441D01*
X24995164Y40690688D01*
X25062179Y40528901D01*
X25159469Y40383296D01*
X25283296Y40259469D01*
X25428901Y40162179D01*
X25590688Y40095164D01*
X25762441Y40061000D01*
X25937559Y40061000D01*
X26109312Y40095164D01*
X26271099Y40162179D01*
X26271729Y40162600D01*
X41361337Y40162600D01*
X41400000Y40158792D01*
X41438663Y40162600D01*
X41438673Y40162600D01*
X41554357Y40173994D01*
X41702783Y40219018D01*
X41839572Y40292134D01*
X41959469Y40390531D01*
X41984128Y40420578D01*
X48863551Y47300000D01*
X53011928Y47300000D01*
X53024188Y47175518D01*
X53060498Y47055820D01*
X53119463Y46945506D01*
X53198815Y46848815D01*
X53295506Y46769463D01*
X53405820Y46710498D01*
X53525518Y46674188D01*
X53650000Y46661928D01*
X53864250Y46665000D01*
X54023000Y46823750D01*
X54023000Y47973000D01*
X53173750Y47973000D01*
X53015000Y47814250D01*
X53011928Y47300000D01*
X48863551Y47300000D01*
X50463551Y48900000D01*
X53011928Y48900000D01*
X53015000Y48385750D01*
X53173750Y48227000D01*
X54023000Y48227000D01*
X54023000Y49376250D01*
X53864250Y49535000D01*
X53650000Y49538072D01*
X53525518Y49525812D01*
X53405820Y49489502D01*
X53295506Y49430537D01*
X53198815Y49351185D01*
X53119463Y49254494D01*
X53060498Y49144180D01*
X53024188Y49024482D01*
X53011928Y48900000D01*
X50463551Y48900000D01*
X50708568Y49145016D01*
X50709312Y49145164D01*
X50871099Y49212179D01*
X51016704Y49309469D01*
X51140531Y49433296D01*
X51237821Y49578901D01*
X51304836Y49740688D01*
X51339000Y49912441D01*
X51339000Y50087559D01*
X51304836Y50259312D01*
X51237821Y50421099D01*
X51140531Y50566704D01*
X51016704Y50690531D01*
X50871099Y50787821D01*
X50709312Y50854836D01*
X50537559Y50889000D01*
X50362441Y50889000D01*
X50190688Y50854836D01*
X50028901Y50787821D01*
X49883296Y50690531D01*
X49759469Y50566704D01*
X49662179Y50421099D01*
X49595164Y50259312D01*
X49595016Y50258568D01*
X41073850Y41737400D01*
X30712377Y41737400D01*
X30739000Y41871241D01*
X30739000Y42046359D01*
X30704836Y42218112D01*
X30644987Y42362600D01*
X30978271Y42362600D01*
X30978901Y42362179D01*
X31140688Y42295164D01*
X31312441Y42261000D01*
X31487559Y42261000D01*
X31659312Y42295164D01*
X31821099Y42362179D01*
X31966704Y42459469D01*
X32090531Y42583296D01*
X32187821Y42728901D01*
X32254836Y42890688D01*
X32289000Y43062441D01*
X32289000Y43237559D01*
X32254836Y43409312D01*
X32187821Y43571099D01*
X32090531Y43716704D01*
X31966704Y43840531D01*
X31821099Y43937821D01*
X31659312Y44004836D01*
X31487559Y44039000D01*
X31312441Y44039000D01*
X31140688Y44004836D01*
X30978901Y43937821D01*
X30978271Y43937400D01*
X22794635Y43937400D01*
X22890531Y44033296D01*
X22987821Y44178901D01*
X23054836Y44340688D01*
X23089000Y44512441D01*
X23089000Y44687559D01*
X23054836Y44859312D01*
X22996561Y45000000D01*
X23054836Y45140688D01*
X23088236Y45308599D01*
X29808456Y45308599D01*
X29862179Y45178901D01*
X29959469Y45033296D01*
X30083296Y44909469D01*
X30228901Y44812179D01*
X30390688Y44745164D01*
X30562441Y44711000D01*
X30737559Y44711000D01*
X30909312Y44745164D01*
X31071099Y44812179D01*
X31071729Y44812600D01*
X35962449Y44812600D01*
X36025788Y44786364D01*
X36197541Y44752200D01*
X36372659Y44752200D01*
X36544412Y44786364D01*
X36706199Y44853379D01*
X36851804Y44950669D01*
X36975631Y45074496D01*
X37072921Y45220101D01*
X37139936Y45381888D01*
X37146045Y45412600D01*
X38911337Y45412600D01*
X38950000Y45408792D01*
X38988663Y45412600D01*
X38988673Y45412600D01*
X39104357Y45423994D01*
X39252783Y45469018D01*
X39389572Y45542134D01*
X39509469Y45640531D01*
X39534128Y45670578D01*
X44963551Y51100000D01*
X53011928Y51100000D01*
X53024188Y50975518D01*
X53060498Y50855820D01*
X53119463Y50745506D01*
X53198815Y50648815D01*
X53295506Y50569463D01*
X53405820Y50510498D01*
X53525518Y50474188D01*
X53650000Y50461928D01*
X53864250Y50465000D01*
X54023000Y50623750D01*
X54023000Y51773000D01*
X53173750Y51773000D01*
X53015000Y51614250D01*
X53011928Y51100000D01*
X44963551Y51100000D01*
X46563551Y52700000D01*
X53011928Y52700000D01*
X53015000Y52185750D01*
X53173750Y52027000D01*
X54023000Y52027000D01*
X54023000Y53176250D01*
X53864250Y53335000D01*
X53650000Y53338072D01*
X53525518Y53325812D01*
X53405820Y53289502D01*
X53295506Y53230537D01*
X53198815Y53151185D01*
X53119463Y53054494D01*
X53060498Y52944180D01*
X53024188Y52824482D01*
X53011928Y52700000D01*
X46563551Y52700000D01*
X47408568Y53545016D01*
X47409312Y53545164D01*
X47571099Y53612179D01*
X47716704Y53709469D01*
X47840531Y53833296D01*
X47937821Y53978901D01*
X48004836Y54140688D01*
X48039000Y54312441D01*
X48039000Y54487559D01*
X48004836Y54659312D01*
X47937821Y54821099D01*
X47840531Y54966704D01*
X47716704Y55090531D01*
X47571099Y55187821D01*
X47409312Y55254836D01*
X47237559Y55289000D01*
X47062441Y55289000D01*
X46890688Y55254836D01*
X46728901Y55187821D01*
X46583296Y55090531D01*
X46459469Y54966704D01*
X46362179Y54821099D01*
X46295164Y54659312D01*
X46295016Y54658568D01*
X38623850Y46987400D01*
X33921729Y46987400D01*
X33921099Y46987821D01*
X33759312Y47054836D01*
X33587559Y47089000D01*
X33412441Y47089000D01*
X33240688Y47054836D01*
X33078901Y46987821D01*
X32933296Y46890531D01*
X32809469Y46766704D01*
X32712179Y46621099D01*
X32645164Y46459312D01*
X32630860Y46387400D01*
X31071729Y46387400D01*
X31071099Y46387821D01*
X30909312Y46454836D01*
X30908566Y46454984D01*
X30738128Y46625422D01*
X30713470Y46655468D01*
X30593573Y46753865D01*
X30456784Y46826981D01*
X30308358Y46872005D01*
X30192674Y46883399D01*
X30192664Y46883399D01*
X30154001Y46887207D01*
X30115338Y46883399D01*
X20005153Y46883399D01*
X19554984Y47333566D01*
X19554836Y47334312D01*
X19487821Y47496099D01*
X19390531Y47641704D01*
X19266704Y47765531D01*
X19121099Y47862821D01*
X18959312Y47929836D01*
X18787559Y47964000D01*
X18612441Y47964000D01*
X18440688Y47929836D01*
X18278901Y47862821D01*
X18133296Y47765531D01*
X18009469Y47641704D01*
X17912179Y47496099D01*
X17845164Y47334312D01*
X17811000Y47162559D01*
X17811000Y46987441D01*
X17845164Y46815688D01*
X17912179Y46653901D01*
X18009469Y46508296D01*
X18133296Y46384469D01*
X18278901Y46287179D01*
X18440688Y46220164D01*
X18441434Y46220016D01*
X18828850Y45832599D01*
X11935445Y45832599D01*
X11935000Y45914250D01*
X11776250Y46073000D01*
X10577000Y46073000D01*
X10577000Y46053000D01*
X10323000Y46053000D01*
X10323000Y46073000D01*
X10303000Y46073000D01*
X10303000Y46327000D01*
X10323000Y46327000D01*
X10323000Y46347000D01*
X10577000Y46347000D01*
X10577000Y46327000D01*
X11776250Y46327000D01*
X11935000Y46485750D01*
X11938072Y47050000D01*
X11925812Y47174482D01*
X11889502Y47294180D01*
X11830537Y47404494D01*
X11751185Y47501185D01*
X11654494Y47580537D01*
X11544180Y47639502D01*
X11475313Y47660393D01*
X11505134Y47684866D01*
X11690706Y47910986D01*
X11828599Y48168966D01*
X11913513Y48448889D01*
X11942185Y48740000D01*
X11913513Y49031111D01*
X11828599Y49311034D01*
X11690706Y49569014D01*
X11505134Y49795134D01*
X11279014Y49980706D01*
X11224209Y50010000D01*
X11279014Y50039294D01*
X11505134Y50224866D01*
X11690706Y50450986D01*
X11712949Y50492600D01*
X17443849Y50492600D01*
X17845016Y50091433D01*
X17845164Y50090688D01*
X17912179Y49928901D01*
X18009469Y49783296D01*
X18133296Y49659469D01*
X18278901Y49562179D01*
X18440688Y49495164D01*
X18441434Y49495016D01*
X18969880Y48966569D01*
X18994530Y48936532D01*
X19024566Y48911882D01*
X19024568Y48911880D01*
X19039044Y48900000D01*
X19114427Y48838135D01*
X19251216Y48765019D01*
X19399642Y48719995D01*
X19515326Y48708601D01*
X19515335Y48708601D01*
X19553998Y48704793D01*
X19592661Y48708601D01*
X27957338Y48708601D01*
X27996001Y48704793D01*
X28034664Y48708601D01*
X28034674Y48708601D01*
X28150358Y48719995D01*
X28298784Y48765019D01*
X28435573Y48838135D01*
X28503704Y48894048D01*
X28509312Y48895164D01*
X28671099Y48962179D01*
X28816704Y49059469D01*
X28940531Y49183296D01*
X29037821Y49328901D01*
X29092539Y49461000D01*
X29137559Y49461000D01*
X29309312Y49495164D01*
X29471099Y49562179D01*
X29616704Y49659469D01*
X29740531Y49783296D01*
X29837821Y49928901D01*
X29904836Y50090688D01*
X29939000Y50262441D01*
X29939000Y50437559D01*
X29904836Y50609312D01*
X29837821Y50771099D01*
X29740531Y50916704D01*
X29616704Y51040531D01*
X29471099Y51137821D01*
X29309312Y51204836D01*
X29137559Y51239000D01*
X28962441Y51239000D01*
X28790688Y51204836D01*
X28628901Y51137821D01*
X28628271Y51137400D01*
X21371729Y51137400D01*
X21371099Y51137821D01*
X21209312Y51204836D01*
X21208567Y51204984D01*
X18064128Y54349422D01*
X18039469Y54379469D01*
X17919572Y54477866D01*
X17782783Y54550982D01*
X17634357Y54596006D01*
X17518673Y54607400D01*
X17518663Y54607400D01*
X17480000Y54611208D01*
X17441337Y54607400D01*
X11712949Y54607400D01*
X11690706Y54649014D01*
X11505134Y54875134D01*
X11279014Y55060706D01*
X11021034Y55198599D01*
X10741111Y55283513D01*
X10522950Y55305000D01*
X10377050Y55305000D01*
X10158889Y55283513D01*
X9878966Y55198599D01*
X9620986Y55060706D01*
X9394866Y54875134D01*
X9209294Y54649014D01*
X9071401Y54391034D01*
X8986487Y54111111D01*
X8957815Y53820000D01*
X8986487Y53528889D01*
X9071401Y53248966D01*
X9088729Y53216548D01*
X9030444Y53210807D01*
X8882018Y53165783D01*
X8745229Y53092667D01*
X8655371Y53018923D01*
X8655368Y53018920D01*
X8625332Y52994270D01*
X8600682Y52964233D01*
X8341433Y52704984D01*
X8340688Y52704836D01*
X8178901Y52637821D01*
X8033296Y52540531D01*
X7909469Y52416704D01*
X7812179Y52271099D01*
X7745164Y52109312D01*
X7711000Y51937559D01*
X7711000Y51762441D01*
X7745164Y51590688D01*
X7812179Y51428901D01*
X7909469Y51283296D01*
X8033296Y51159469D01*
X8163220Y51072657D01*
X8162179Y51071099D01*
X8095164Y50909312D01*
X8086126Y50863874D01*
X8040688Y50854836D01*
X7878901Y50787821D01*
X7733296Y50690531D01*
X7609469Y50566704D01*
X7512179Y50421099D01*
X7445164Y50259312D01*
X7411000Y50087559D01*
X7411000Y49912441D01*
X7445164Y49740688D01*
X7512179Y49578901D01*
X7512600Y49578271D01*
X7512601Y46216744D01*
X7465496Y46236493D01*
X7227000Y46285000D01*
X6796918Y46285000D01*
X6816403Y46330463D01*
X6819334Y46339933D01*
X6864461Y46489402D01*
X6876955Y46552503D01*
X6890339Y46615469D01*
X6891375Y46625328D01*
X6906611Y46780715D01*
X6910000Y46815123D01*
X6910000Y53184877D01*
X6907025Y53215083D01*
X6907059Y53219938D01*
X6906091Y53229804D01*
X6889770Y53385080D01*
X6876834Y53448097D01*
X6864774Y53511322D01*
X6861908Y53520812D01*
X6861907Y53520817D01*
X6861905Y53520822D01*
X6815739Y53669962D01*
X6796807Y53715000D01*
X7227000Y53715000D01*
X7465496Y53763507D01*
X7689946Y53857610D01*
X7891725Y53993693D01*
X8063078Y54166526D01*
X8197421Y54369467D01*
X8289591Y54594718D01*
X8293462Y54632391D01*
X8168731Y54823000D01*
X6777000Y54823000D01*
X6777000Y54803000D01*
X6523000Y54803000D01*
X6523000Y54823000D01*
X5131269Y54823000D01*
X5024605Y54660000D01*
X4425395Y54660000D01*
X4318731Y54823000D01*
X2777000Y54823000D01*
X2777000Y54803000D01*
X2523000Y54803000D01*
X2523000Y54823000D01*
X2503000Y54823000D01*
X2503000Y55077000D01*
X2523000Y55077000D01*
X2523000Y56185000D01*
X2777000Y56185000D01*
X2777000Y55077000D01*
X4318731Y55077000D01*
X4443462Y55267609D01*
X5006538Y55267609D01*
X5131269Y55077000D01*
X6523000Y55077000D01*
X6523000Y56185000D01*
X6777000Y56185000D01*
X6777000Y55077000D01*
X8168731Y55077000D01*
X8293462Y55267609D01*
X8289591Y55305282D01*
X8197421Y55530533D01*
X8063078Y55733474D01*
X7891725Y55906307D01*
X7689946Y56042390D01*
X7465496Y56136493D01*
X7227000Y56185000D01*
X6777000Y56185000D01*
X6523000Y56185000D01*
X6073000Y56185000D01*
X5834504Y56136493D01*
X5610054Y56042390D01*
X5408275Y55906307D01*
X5236922Y55733474D01*
X5102579Y55530533D01*
X5010409Y55305282D01*
X5006538Y55267609D01*
X4443462Y55267609D01*
X4439591Y55305282D01*
X4347421Y55530533D01*
X4213078Y55733474D01*
X4041725Y55906307D01*
X3839946Y56042390D01*
X3615496Y56136493D01*
X3377000Y56185000D01*
X2777000Y56185000D01*
X2523000Y56185000D01*
X1923000Y56185000D01*
X1684504Y56136493D01*
X1460054Y56042390D01*
X1410000Y56008633D01*
X1410000Y56737559D01*
X26911000Y56737559D01*
X26911000Y56562441D01*
X26945164Y56390688D01*
X27012179Y56228901D01*
X27109469Y56083296D01*
X27233296Y55959469D01*
X27378901Y55862179D01*
X27540688Y55795164D01*
X27712441Y55761000D01*
X27887559Y55761000D01*
X28059312Y55795164D01*
X28221099Y55862179D01*
X28366704Y55959469D01*
X28490531Y56083296D01*
X28587821Y56228901D01*
X28654836Y56390688D01*
X28654984Y56391434D01*
X29426152Y57162600D01*
X39728271Y57162600D01*
X39728901Y57162179D01*
X39890688Y57095164D01*
X40062441Y57061000D01*
X40237559Y57061000D01*
X40409312Y57095164D01*
X40571099Y57162179D01*
X40716704Y57259469D01*
X40840531Y57383296D01*
X40937821Y57528901D01*
X41004836Y57690688D01*
X41039000Y57862441D01*
X41039000Y58037559D01*
X41004836Y58209312D01*
X40937821Y58371099D01*
X40840531Y58516704D01*
X40716704Y58640531D01*
X40571099Y58737821D01*
X40409312Y58804836D01*
X40237559Y58839000D01*
X40062441Y58839000D01*
X39890688Y58804836D01*
X39728901Y58737821D01*
X39728271Y58737400D01*
X29138665Y58737400D01*
X29100000Y58741208D01*
X29061335Y58737400D01*
X29061327Y58737400D01*
X28945643Y58726006D01*
X28797217Y58680982D01*
X28660428Y58607866D01*
X28570570Y58534122D01*
X28570567Y58534119D01*
X28540531Y58509469D01*
X28515881Y58479433D01*
X27541434Y57504984D01*
X27540688Y57504836D01*
X27378901Y57437821D01*
X27233296Y57340531D01*
X27109469Y57216704D01*
X27012179Y57071099D01*
X26945164Y56909312D01*
X26911000Y56737559D01*
X1410000Y56737559D01*
X1410000Y59995157D01*
X1472629Y59843957D01*
X1624201Y59617114D01*
X1817114Y59424201D01*
X2043957Y59272629D01*
X2296011Y59168225D01*
X2563589Y59115000D01*
X2836411Y59115000D01*
X3103989Y59168225D01*
X3356043Y59272629D01*
X3582886Y59424201D01*
X3775799Y59617114D01*
X3927371Y59843957D01*
X4031775Y60096011D01*
X4085000Y60363589D01*
X4085000Y60636411D01*
X4031775Y60903989D01*
X3927371Y61156043D01*
X3775799Y61382886D01*
X3582886Y61575799D01*
X3356043Y61727371D01*
X3204843Y61790000D01*
X4984877Y61790000D01*
X5020262Y61793485D01*
X5033246Y61793485D01*
X5043105Y61794522D01*
X5237055Y61816277D01*
X5299984Y61829653D01*
X5363127Y61842156D01*
X5372597Y61845087D01*
X5558627Y61904101D01*
X5617690Y61929416D01*
X5677268Y61953972D01*
X5685988Y61958688D01*
X5743777Y61990458D01*
X5780795Y61965723D01*
X5941855Y61899010D01*
X6112835Y61865000D01*
X6287165Y61865000D01*
X6458145Y61899010D01*
X6575000Y61947413D01*
X6691855Y61899010D01*
X6862835Y61865000D01*
X7037165Y61865000D01*
X7208145Y61899010D01*
X7325000Y61947413D01*
X7441855Y61899010D01*
X7612835Y61865000D01*
X7787165Y61865000D01*
X7958145Y61899010D01*
X8119205Y61965723D01*
X8156483Y61990631D01*
X8235606Y61948561D01*
X8295076Y61924049D01*
X8354248Y61898688D01*
X8363718Y61895757D01*
X8550554Y61839348D01*
X8613684Y61826848D01*
X8676623Y61813470D01*
X8686481Y61812434D01*
X8880209Y61793439D01*
X8915123Y61790000D01*
X46984877Y61790000D01*
X47020262Y61793485D01*
X47033246Y61793485D01*
X47043105Y61794522D01*
X47237055Y61816277D01*
X47299984Y61829653D01*
X47363127Y61842156D01*
X47372597Y61845087D01*
X47558627Y61904101D01*
X47617690Y61929416D01*
X47677268Y61953972D01*
X47685988Y61958688D01*
X47743777Y61990458D01*
X47780795Y61965723D01*
X47941855Y61899010D01*
X48112835Y61865000D01*
X48287165Y61865000D01*
X48458145Y61899010D01*
X48575000Y61947413D01*
X48691855Y61899010D01*
X48862835Y61865000D01*
X49037165Y61865000D01*
X49208145Y61899010D01*
X49325000Y61947413D01*
X49441855Y61899010D01*
X49612835Y61865000D01*
X49787165Y61865000D01*
X49958145Y61899010D01*
X50119205Y61965723D01*
X50156483Y61990631D01*
X50235606Y61948561D01*
X50235606Y61948561D01*
G37*
X50235606Y61948561D02*
X50295076Y61924049D01*
X50354248Y61898688D01*
X50363718Y61895757D01*
X50550554Y61839348D01*
X50613684Y61826848D01*
X50676623Y61813470D01*
X50686481Y61812434D01*
X50880209Y61793439D01*
X50915123Y61790000D01*
X52745157Y61790000D01*
X52593957Y61727371D01*
X52367114Y61575799D01*
X52174201Y61382886D01*
X52022629Y61156043D01*
X51918225Y60903989D01*
X51865000Y60636411D01*
X51865000Y60363589D01*
X51918225Y60096011D01*
X52022629Y59843957D01*
X52174201Y59617114D01*
X52367114Y59424201D01*
X52593957Y59272629D01*
X52846011Y59168225D01*
X53113589Y59115000D01*
X53386411Y59115000D01*
X53653989Y59168225D01*
X53906043Y59272629D01*
X54132886Y59424201D01*
X54325799Y59617114D01*
X54477371Y59843957D01*
X54540001Y59995159D01*
X54540001Y53336495D01*
X54435750Y53335000D01*
X54277000Y53176250D01*
X54277000Y52027000D01*
X54297000Y52027000D01*
X54297000Y51773000D01*
X54277000Y51773000D01*
X54277000Y50623750D01*
X54435750Y50465000D01*
X54540001Y50463505D01*
X54540000Y49536495D01*
X54435750Y49535000D01*
X54277000Y49376250D01*
X54277000Y48227000D01*
X54297000Y48227000D01*
X54297000Y47973000D01*
X54277000Y47973000D01*
X54277000Y46823750D01*
X54435750Y46665000D01*
X54540000Y46663505D01*
X54540000Y40004843D01*
X54477371Y40156043D01*
X54325799Y40382886D01*
X54132886Y40575799D01*
X53906043Y40727371D01*
X53653989Y40831775D01*
X53386411Y40885000D01*
X53113589Y40885000D01*
X52846011Y40831775D01*
X52593957Y40727371D01*
X52367114Y40575799D01*
X52174201Y40382886D01*
X52022629Y40156043D01*
X51918225Y39903989D01*
X51865000Y39636411D01*
X51865000Y39363589D01*
X51918225Y39096011D01*
X52022629Y38843957D01*
X52174201Y38617114D01*
X52367114Y38424201D01*
X52593957Y38272629D01*
X52745157Y38210000D01*
X50915123Y38210000D01*
X50879738Y38206515D01*
X50866754Y38206515D01*
X50856895Y38205478D01*
X50662945Y38183723D01*
X50600016Y38170347D01*
X50536873Y38157844D01*
X50527403Y38154913D01*
X50341373Y38095900D01*
X50282252Y38070560D01*
X50222733Y38046028D01*
X50214012Y38041313D01*
X50156223Y38009543D01*
X50119205Y38034277D01*
X49958145Y38100990D01*
X49787165Y38135000D01*
X49612835Y38135000D01*
X49441855Y38100990D01*
X49325000Y38052587D01*
X49208145Y38100990D01*
X49037165Y38135000D01*
X48862835Y38135000D01*
X48691855Y38100990D01*
X48575000Y38052587D01*
X48458145Y38100990D01*
X48287165Y38135000D01*
X48112835Y38135000D01*
X47941855Y38100990D01*
X47780795Y38034277D01*
X47743517Y38009369D01*
X47664394Y38051439D01*
X47604924Y38075951D01*
X47545752Y38101312D01*
X47536282Y38104243D01*
X47349446Y38160652D01*
X47286316Y38173152D01*
X47223377Y38186530D01*
X47213518Y38187566D01*
X47019792Y38206561D01*
X46984877Y38210000D01*
X8915123Y38210000D01*
X8879738Y38206515D01*
X8866754Y38206515D01*
X8856895Y38205478D01*
X8662945Y38183723D01*
X8600016Y38170347D01*
X8536873Y38157844D01*
X8527403Y38154913D01*
X8341373Y38095900D01*
X8282252Y38070560D01*
X8222733Y38046028D01*
X8214012Y38041313D01*
X8156223Y38009543D01*
X8119205Y38034277D01*
X7958145Y38100990D01*
X7787165Y38135000D01*
X7612835Y38135000D01*
X7441855Y38100990D01*
X7325000Y38052587D01*
X7208145Y38100990D01*
X7037165Y38135000D01*
X6862835Y38135000D01*
X6691855Y38100990D01*
X6575000Y38052587D01*
X6458145Y38100990D01*
X6287165Y38135000D01*
X6112835Y38135000D01*
X5941855Y38100990D01*
X5780795Y38034277D01*
X5743517Y38009369D01*
X5664394Y38051439D01*
X5604924Y38075951D01*
X5545752Y38101312D01*
X5536282Y38104243D01*
X5349446Y38160652D01*
X5286316Y38173152D01*
X5223377Y38186530D01*
X5213518Y38187566D01*
X5019792Y38206561D01*
X4984877Y38210000D01*
X3204843Y38210000D01*
X3356043Y38272629D01*
X3582886Y38424201D01*
X3775799Y38617114D01*
X3927371Y38843957D01*
X4031775Y39096011D01*
X4085000Y39363589D01*
X4085000Y39636411D01*
X4031775Y39903989D01*
X3927371Y40156043D01*
X3775799Y40382886D01*
X3582886Y40575799D01*
X3356043Y40727371D01*
X3103989Y40831775D01*
X2836411Y40885000D01*
X2563589Y40885000D01*
X2296011Y40831775D01*
X2043957Y40727371D01*
X1817114Y40575799D01*
X1624201Y40382886D01*
X1472629Y40156043D01*
X1410000Y40004843D01*
X1410000Y43991367D01*
X1460054Y43957610D01*
X1684504Y43863507D01*
X1923000Y43815000D01*
X2523000Y43815000D01*
X2523000Y44923000D01*
X2777000Y44923000D01*
X2777000Y43815000D01*
X3377000Y43815000D01*
X3615496Y43863507D01*
X3839946Y43957610D01*
X4041725Y44093693D01*
X4213078Y44266526D01*
X4347421Y44469467D01*
X4439591Y44694718D01*
X4443462Y44732391D01*
X5006538Y44732391D01*
X5010409Y44694718D01*
X5102579Y44469467D01*
X5236922Y44266526D01*
X5408275Y44093693D01*
X5610054Y43957610D01*
X5834504Y43863507D01*
X6073000Y43815000D01*
X6523000Y43815000D01*
X6523000Y44923000D01*
X5131269Y44923000D01*
X5006538Y44732391D01*
X4443462Y44732391D01*
X4318731Y44923000D01*
X2777000Y44923000D01*
X2523000Y44923000D01*
X2503000Y44923000D01*
X2503000Y45177000D01*
X2523000Y45177000D01*
X2523000Y45197000D01*
X2777000Y45197000D01*
X2777000Y45177000D01*
X4318731Y45177000D01*
X4425395Y45340000D01*
X5024605Y45340000D01*
X5131269Y45177000D01*
X6523000Y45177000D01*
X6523000Y45197000D01*
X6777000Y45197000D01*
X6777000Y45177000D01*
X6797000Y45177000D01*
X6797000Y44923000D01*
X6777000Y44923000D01*
X6777000Y43815000D01*
X7227000Y43815000D01*
X7465496Y43863507D01*
X7689946Y43957610D01*
X7891725Y44093693D01*
X8063078Y44266526D01*
X8187195Y44454020D01*
X8824646Y43816568D01*
X8849296Y43786532D01*
X8879332Y43761882D01*
X8879335Y43761879D01*
X8969193Y43688135D01*
X9105982Y43615019D01*
X9254408Y43569995D01*
X9408765Y43554792D01*
X9447438Y43558601D01*
X18845049Y43558601D01*
X18421449Y43135000D01*
X18288212Y43135000D01*
X18068933Y43091383D01*
X17862376Y43005824D01*
X17676480Y42881612D01*
X17518388Y42723520D01*
X17394176Y42537624D01*
X17308617Y42331067D01*
X17265000Y42111788D01*
X17265000Y41888212D01*
X17308617Y41668933D01*
X17394176Y41462376D01*
X17518388Y41276480D01*
X17676480Y41118388D01*
X17862376Y40994176D01*
X18068933Y40908617D01*
X18288212Y40865000D01*
X18511788Y40865000D01*
X18731067Y40908617D01*
X18937624Y40994176D01*
X19123520Y41118388D01*
X19281612Y41276480D01*
X19405824Y41462376D01*
X19475000Y41629381D01*
X19544176Y41462376D01*
X19668388Y41276480D01*
X19826480Y41118388D01*
X20012376Y40994176D01*
X20218933Y40908617D01*
X20438212Y40865000D01*
X20661788Y40865000D01*
X20881067Y40908617D01*
X21087624Y40994176D01*
X21273520Y41118388D01*
X21326532Y41171400D01*
X24987623Y41171400D01*
X24961000Y41037559D01*
X24961000Y40862441D01*
X24995164Y40690688D01*
X25062179Y40528901D01*
X25159469Y40383296D01*
X25283296Y40259469D01*
X25428901Y40162179D01*
X25590688Y40095164D01*
X25762441Y40061000D01*
X25937559Y40061000D01*
X26109312Y40095164D01*
X26271099Y40162179D01*
X26271729Y40162600D01*
X41361337Y40162600D01*
X41400000Y40158792D01*
X41438663Y40162600D01*
X41438673Y40162600D01*
X41554357Y40173994D01*
X41702783Y40219018D01*
X41839572Y40292134D01*
X41959469Y40390531D01*
X41984128Y40420578D01*
X48863551Y47300000D01*
X53011928Y47300000D01*
X53024188Y47175518D01*
X53060498Y47055820D01*
X53119463Y46945506D01*
X53198815Y46848815D01*
X53295506Y46769463D01*
X53405820Y46710498D01*
X53525518Y46674188D01*
X53650000Y46661928D01*
X53864250Y46665000D01*
X54023000Y46823750D01*
X54023000Y47973000D01*
X53173750Y47973000D01*
X53015000Y47814250D01*
X53011928Y47300000D01*
X48863551Y47300000D01*
X50463551Y48900000D01*
X53011928Y48900000D01*
X53015000Y48385750D01*
X53173750Y48227000D01*
X54023000Y48227000D01*
X54023000Y49376250D01*
X53864250Y49535000D01*
X53650000Y49538072D01*
X53525518Y49525812D01*
X53405820Y49489502D01*
X53295506Y49430537D01*
X53198815Y49351185D01*
X53119463Y49254494D01*
X53060498Y49144180D01*
X53024188Y49024482D01*
X53011928Y48900000D01*
X50463551Y48900000D01*
X50708568Y49145016D01*
X50709312Y49145164D01*
X50871099Y49212179D01*
X51016704Y49309469D01*
X51140531Y49433296D01*
X51237821Y49578901D01*
X51304836Y49740688D01*
X51339000Y49912441D01*
X51339000Y50087559D01*
X51304836Y50259312D01*
X51237821Y50421099D01*
X51140531Y50566704D01*
X51016704Y50690531D01*
X50871099Y50787821D01*
X50709312Y50854836D01*
X50537559Y50889000D01*
X50362441Y50889000D01*
X50190688Y50854836D01*
X50028901Y50787821D01*
X49883296Y50690531D01*
X49759469Y50566704D01*
X49662179Y50421099D01*
X49595164Y50259312D01*
X49595016Y50258568D01*
X41073850Y41737400D01*
X30712377Y41737400D01*
X30739000Y41871241D01*
X30739000Y42046359D01*
X30704836Y42218112D01*
X30644987Y42362600D01*
X30978271Y42362600D01*
X30978901Y42362179D01*
X31140688Y42295164D01*
X31312441Y42261000D01*
X31487559Y42261000D01*
X31659312Y42295164D01*
X31821099Y42362179D01*
X31966704Y42459469D01*
X32090531Y42583296D01*
X32187821Y42728901D01*
X32254836Y42890688D01*
X32289000Y43062441D01*
X32289000Y43237559D01*
X32254836Y43409312D01*
X32187821Y43571099D01*
X32090531Y43716704D01*
X31966704Y43840531D01*
X31821099Y43937821D01*
X31659312Y44004836D01*
X31487559Y44039000D01*
X31312441Y44039000D01*
X31140688Y44004836D01*
X30978901Y43937821D01*
X30978271Y43937400D01*
X22794635Y43937400D01*
X22890531Y44033296D01*
X22987821Y44178901D01*
X23054836Y44340688D01*
X23089000Y44512441D01*
X23089000Y44687559D01*
X23054836Y44859312D01*
X22996561Y45000000D01*
X23054836Y45140688D01*
X23088236Y45308599D01*
X29808456Y45308599D01*
X29862179Y45178901D01*
X29959469Y45033296D01*
X30083296Y44909469D01*
X30228901Y44812179D01*
X30390688Y44745164D01*
X30562441Y44711000D01*
X30737559Y44711000D01*
X30909312Y44745164D01*
X31071099Y44812179D01*
X31071729Y44812600D01*
X35962449Y44812600D01*
X36025788Y44786364D01*
X36197541Y44752200D01*
X36372659Y44752200D01*
X36544412Y44786364D01*
X36706199Y44853379D01*
X36851804Y44950669D01*
X36975631Y45074496D01*
X37072921Y45220101D01*
X37139936Y45381888D01*
X37146045Y45412600D01*
X38911337Y45412600D01*
X38950000Y45408792D01*
X38988663Y45412600D01*
X38988673Y45412600D01*
X39104357Y45423994D01*
X39252783Y45469018D01*
X39389572Y45542134D01*
X39509469Y45640531D01*
X39534128Y45670578D01*
X44963551Y51100000D01*
X53011928Y51100000D01*
X53024188Y50975518D01*
X53060498Y50855820D01*
X53119463Y50745506D01*
X53198815Y50648815D01*
X53295506Y50569463D01*
X53405820Y50510498D01*
X53525518Y50474188D01*
X53650000Y50461928D01*
X53864250Y50465000D01*
X54023000Y50623750D01*
X54023000Y51773000D01*
X53173750Y51773000D01*
X53015000Y51614250D01*
X53011928Y51100000D01*
X44963551Y51100000D01*
X46563551Y52700000D01*
X53011928Y52700000D01*
X53015000Y52185750D01*
X53173750Y52027000D01*
X54023000Y52027000D01*
X54023000Y53176250D01*
X53864250Y53335000D01*
X53650000Y53338072D01*
X53525518Y53325812D01*
X53405820Y53289502D01*
X53295506Y53230537D01*
X53198815Y53151185D01*
X53119463Y53054494D01*
X53060498Y52944180D01*
X53024188Y52824482D01*
X53011928Y52700000D01*
X46563551Y52700000D01*
X47408568Y53545016D01*
X47409312Y53545164D01*
X47571099Y53612179D01*
X47716704Y53709469D01*
X47840531Y53833296D01*
X47937821Y53978901D01*
X48004836Y54140688D01*
X48039000Y54312441D01*
X48039000Y54487559D01*
X48004836Y54659312D01*
X47937821Y54821099D01*
X47840531Y54966704D01*
X47716704Y55090531D01*
X47571099Y55187821D01*
X47409312Y55254836D01*
X47237559Y55289000D01*
X47062441Y55289000D01*
X46890688Y55254836D01*
X46728901Y55187821D01*
X46583296Y55090531D01*
X46459469Y54966704D01*
X46362179Y54821099D01*
X46295164Y54659312D01*
X46295016Y54658568D01*
X38623850Y46987400D01*
X33921729Y46987400D01*
X33921099Y46987821D01*
X33759312Y47054836D01*
X33587559Y47089000D01*
X33412441Y47089000D01*
X33240688Y47054836D01*
X33078901Y46987821D01*
X32933296Y46890531D01*
X32809469Y46766704D01*
X32712179Y46621099D01*
X32645164Y46459312D01*
X32630860Y46387400D01*
X31071729Y46387400D01*
X31071099Y46387821D01*
X30909312Y46454836D01*
X30908566Y46454984D01*
X30738128Y46625422D01*
X30713470Y46655468D01*
X30593573Y46753865D01*
X30456784Y46826981D01*
X30308358Y46872005D01*
X30192674Y46883399D01*
X30192664Y46883399D01*
X30154001Y46887207D01*
X30115338Y46883399D01*
X20005153Y46883399D01*
X19554984Y47333566D01*
X19554836Y47334312D01*
X19487821Y47496099D01*
X19390531Y47641704D01*
X19266704Y47765531D01*
X19121099Y47862821D01*
X18959312Y47929836D01*
X18787559Y47964000D01*
X18612441Y47964000D01*
X18440688Y47929836D01*
X18278901Y47862821D01*
X18133296Y47765531D01*
X18009469Y47641704D01*
X17912179Y47496099D01*
X17845164Y47334312D01*
X17811000Y47162559D01*
X17811000Y46987441D01*
X17845164Y46815688D01*
X17912179Y46653901D01*
X18009469Y46508296D01*
X18133296Y46384469D01*
X18278901Y46287179D01*
X18440688Y46220164D01*
X18441434Y46220016D01*
X18828850Y45832599D01*
X11935445Y45832599D01*
X11935000Y45914250D01*
X11776250Y46073000D01*
X10577000Y46073000D01*
X10577000Y46053000D01*
X10323000Y46053000D01*
X10323000Y46073000D01*
X10303000Y46073000D01*
X10303000Y46327000D01*
X10323000Y46327000D01*
X10323000Y46347000D01*
X10577000Y46347000D01*
X10577000Y46327000D01*
X11776250Y46327000D01*
X11935000Y46485750D01*
X11938072Y47050000D01*
X11925812Y47174482D01*
X11889502Y47294180D01*
X11830537Y47404494D01*
X11751185Y47501185D01*
X11654494Y47580537D01*
X11544180Y47639502D01*
X11475313Y47660393D01*
X11505134Y47684866D01*
X11690706Y47910986D01*
X11828599Y48168966D01*
X11913513Y48448889D01*
X11942185Y48740000D01*
X11913513Y49031111D01*
X11828599Y49311034D01*
X11690706Y49569014D01*
X11505134Y49795134D01*
X11279014Y49980706D01*
X11224209Y50010000D01*
X11279014Y50039294D01*
X11505134Y50224866D01*
X11690706Y50450986D01*
X11712949Y50492600D01*
X17443849Y50492600D01*
X17845016Y50091433D01*
X17845164Y50090688D01*
X17912179Y49928901D01*
X18009469Y49783296D01*
X18133296Y49659469D01*
X18278901Y49562179D01*
X18440688Y49495164D01*
X18441434Y49495016D01*
X18969880Y48966569D01*
X18994530Y48936532D01*
X19024566Y48911882D01*
X19024568Y48911880D01*
X19039044Y48900000D01*
X19114427Y48838135D01*
X19251216Y48765019D01*
X19399642Y48719995D01*
X19515326Y48708601D01*
X19515335Y48708601D01*
X19553998Y48704793D01*
X19592661Y48708601D01*
X27957338Y48708601D01*
X27996001Y48704793D01*
X28034664Y48708601D01*
X28034674Y48708601D01*
X28150358Y48719995D01*
X28298784Y48765019D01*
X28435573Y48838135D01*
X28503704Y48894048D01*
X28509312Y48895164D01*
X28671099Y48962179D01*
X28816704Y49059469D01*
X28940531Y49183296D01*
X29037821Y49328901D01*
X29092539Y49461000D01*
X29137559Y49461000D01*
X29309312Y49495164D01*
X29471099Y49562179D01*
X29616704Y49659469D01*
X29740531Y49783296D01*
X29837821Y49928901D01*
X29904836Y50090688D01*
X29939000Y50262441D01*
X29939000Y50437559D01*
X29904836Y50609312D01*
X29837821Y50771099D01*
X29740531Y50916704D01*
X29616704Y51040531D01*
X29471099Y51137821D01*
X29309312Y51204836D01*
X29137559Y51239000D01*
X28962441Y51239000D01*
X28790688Y51204836D01*
X28628901Y51137821D01*
X28628271Y51137400D01*
X21371729Y51137400D01*
X21371099Y51137821D01*
X21209312Y51204836D01*
X21208567Y51204984D01*
X18064128Y54349422D01*
X18039469Y54379469D01*
X17919572Y54477866D01*
X17782783Y54550982D01*
X17634357Y54596006D01*
X17518673Y54607400D01*
X17518663Y54607400D01*
X17480000Y54611208D01*
X17441337Y54607400D01*
X11712949Y54607400D01*
X11690706Y54649014D01*
X11505134Y54875134D01*
X11279014Y55060706D01*
X11021034Y55198599D01*
X10741111Y55283513D01*
X10522950Y55305000D01*
X10377050Y55305000D01*
X10158889Y55283513D01*
X9878966Y55198599D01*
X9620986Y55060706D01*
X9394866Y54875134D01*
X9209294Y54649014D01*
X9071401Y54391034D01*
X8986487Y54111111D01*
X8957815Y53820000D01*
X8986487Y53528889D01*
X9071401Y53248966D01*
X9088729Y53216548D01*
X9030444Y53210807D01*
X8882018Y53165783D01*
X8745229Y53092667D01*
X8655371Y53018923D01*
X8655368Y53018920D01*
X8625332Y52994270D01*
X8600682Y52964233D01*
X8341433Y52704984D01*
X8340688Y52704836D01*
X8178901Y52637821D01*
X8033296Y52540531D01*
X7909469Y52416704D01*
X7812179Y52271099D01*
X7745164Y52109312D01*
X7711000Y51937559D01*
X7711000Y51762441D01*
X7745164Y51590688D01*
X7812179Y51428901D01*
X7909469Y51283296D01*
X8033296Y51159469D01*
X8163220Y51072657D01*
X8162179Y51071099D01*
X8095164Y50909312D01*
X8086126Y50863874D01*
X8040688Y50854836D01*
X7878901Y50787821D01*
X7733296Y50690531D01*
X7609469Y50566704D01*
X7512179Y50421099D01*
X7445164Y50259312D01*
X7411000Y50087559D01*
X7411000Y49912441D01*
X7445164Y49740688D01*
X7512179Y49578901D01*
X7512600Y49578271D01*
X7512601Y46216744D01*
X7465496Y46236493D01*
X7227000Y46285000D01*
X6796918Y46285000D01*
X6816403Y46330463D01*
X6819334Y46339933D01*
X6864461Y46489402D01*
X6876955Y46552503D01*
X6890339Y46615469D01*
X6891375Y46625328D01*
X6906611Y46780715D01*
X6910000Y46815123D01*
X6910000Y53184877D01*
X6907025Y53215083D01*
X6907059Y53219938D01*
X6906091Y53229804D01*
X6889770Y53385080D01*
X6876834Y53448097D01*
X6864774Y53511322D01*
X6861908Y53520812D01*
X6861907Y53520817D01*
X6861905Y53520822D01*
X6815739Y53669962D01*
X6796807Y53715000D01*
X7227000Y53715000D01*
X7465496Y53763507D01*
X7689946Y53857610D01*
X7891725Y53993693D01*
X8063078Y54166526D01*
X8197421Y54369467D01*
X8289591Y54594718D01*
X8293462Y54632391D01*
X8168731Y54823000D01*
X6777000Y54823000D01*
X6777000Y54803000D01*
X6523000Y54803000D01*
X6523000Y54823000D01*
X5131269Y54823000D01*
X5024605Y54660000D01*
X4425395Y54660000D01*
X4318731Y54823000D01*
X2777000Y54823000D01*
X2777000Y54803000D01*
X2523000Y54803000D01*
X2523000Y54823000D01*
X2503000Y54823000D01*
X2503000Y55077000D01*
X2523000Y55077000D01*
X2523000Y56185000D01*
X2777000Y56185000D01*
X2777000Y55077000D01*
X4318731Y55077000D01*
X4443462Y55267609D01*
X5006538Y55267609D01*
X5131269Y55077000D01*
X6523000Y55077000D01*
X6523000Y56185000D01*
X6777000Y56185000D01*
X6777000Y55077000D01*
X8168731Y55077000D01*
X8293462Y55267609D01*
X8289591Y55305282D01*
X8197421Y55530533D01*
X8063078Y55733474D01*
X7891725Y55906307D01*
X7689946Y56042390D01*
X7465496Y56136493D01*
X7227000Y56185000D01*
X6777000Y56185000D01*
X6523000Y56185000D01*
X6073000Y56185000D01*
X5834504Y56136493D01*
X5610054Y56042390D01*
X5408275Y55906307D01*
X5236922Y55733474D01*
X5102579Y55530533D01*
X5010409Y55305282D01*
X5006538Y55267609D01*
X4443462Y55267609D01*
X4439591Y55305282D01*
X4347421Y55530533D01*
X4213078Y55733474D01*
X4041725Y55906307D01*
X3839946Y56042390D01*
X3615496Y56136493D01*
X3377000Y56185000D01*
X2777000Y56185000D01*
X2523000Y56185000D01*
X1923000Y56185000D01*
X1684504Y56136493D01*
X1460054Y56042390D01*
X1410000Y56008633D01*
X1410000Y56737559D01*
X26911000Y56737559D01*
X26911000Y56562441D01*
X26945164Y56390688D01*
X27012179Y56228901D01*
X27109469Y56083296D01*
X27233296Y55959469D01*
X27378901Y55862179D01*
X27540688Y55795164D01*
X27712441Y55761000D01*
X27887559Y55761000D01*
X28059312Y55795164D01*
X28221099Y55862179D01*
X28366704Y55959469D01*
X28490531Y56083296D01*
X28587821Y56228901D01*
X28654836Y56390688D01*
X28654984Y56391434D01*
X29426152Y57162600D01*
X39728271Y57162600D01*
X39728901Y57162179D01*
X39890688Y57095164D01*
X40062441Y57061000D01*
X40237559Y57061000D01*
X40409312Y57095164D01*
X40571099Y57162179D01*
X40716704Y57259469D01*
X40840531Y57383296D01*
X40937821Y57528901D01*
X41004836Y57690688D01*
X41039000Y57862441D01*
X41039000Y58037559D01*
X41004836Y58209312D01*
X40937821Y58371099D01*
X40840531Y58516704D01*
X40716704Y58640531D01*
X40571099Y58737821D01*
X40409312Y58804836D01*
X40237559Y58839000D01*
X40062441Y58839000D01*
X39890688Y58804836D01*
X39728901Y58737821D01*
X39728271Y58737400D01*
X29138665Y58737400D01*
X29100000Y58741208D01*
X29061335Y58737400D01*
X29061327Y58737400D01*
X28945643Y58726006D01*
X28797217Y58680982D01*
X28660428Y58607866D01*
X28570570Y58534122D01*
X28570567Y58534119D01*
X28540531Y58509469D01*
X28515881Y58479433D01*
X27541434Y57504984D01*
X27540688Y57504836D01*
X27378901Y57437821D01*
X27233296Y57340531D01*
X27109469Y57216704D01*
X27012179Y57071099D01*
X26945164Y56909312D01*
X26911000Y56737559D01*
X1410000Y56737559D01*
X1410000Y59995157D01*
X1472629Y59843957D01*
X1624201Y59617114D01*
X1817114Y59424201D01*
X2043957Y59272629D01*
X2296011Y59168225D01*
X2563589Y59115000D01*
X2836411Y59115000D01*
X3103989Y59168225D01*
X3356043Y59272629D01*
X3582886Y59424201D01*
X3775799Y59617114D01*
X3927371Y59843957D01*
X4031775Y60096011D01*
X4085000Y60363589D01*
X4085000Y60636411D01*
X4031775Y60903989D01*
X3927371Y61156043D01*
X3775799Y61382886D01*
X3582886Y61575799D01*
X3356043Y61727371D01*
X3204843Y61790000D01*
X4984877Y61790000D01*
X5020262Y61793485D01*
X5033246Y61793485D01*
X5043105Y61794522D01*
X5237055Y61816277D01*
X5299984Y61829653D01*
X5363127Y61842156D01*
X5372597Y61845087D01*
X5558627Y61904101D01*
X5617690Y61929416D01*
X5677268Y61953972D01*
X5685988Y61958688D01*
X5743777Y61990458D01*
X5780795Y61965723D01*
X5941855Y61899010D01*
X6112835Y61865000D01*
X6287165Y61865000D01*
X6458145Y61899010D01*
X6575000Y61947413D01*
X6691855Y61899010D01*
X6862835Y61865000D01*
X7037165Y61865000D01*
X7208145Y61899010D01*
X7325000Y61947413D01*
X7441855Y61899010D01*
X7612835Y61865000D01*
X7787165Y61865000D01*
X7958145Y61899010D01*
X8119205Y61965723D01*
X8156483Y61990631D01*
X8235606Y61948561D01*
X8295076Y61924049D01*
X8354248Y61898688D01*
X8363718Y61895757D01*
X8550554Y61839348D01*
X8613684Y61826848D01*
X8676623Y61813470D01*
X8686481Y61812434D01*
X8880209Y61793439D01*
X8915123Y61790000D01*
X46984877Y61790000D01*
X47020262Y61793485D01*
X47033246Y61793485D01*
X47043105Y61794522D01*
X47237055Y61816277D01*
X47299984Y61829653D01*
X47363127Y61842156D01*
X47372597Y61845087D01*
X47558627Y61904101D01*
X47617690Y61929416D01*
X47677268Y61953972D01*
X47685988Y61958688D01*
X47743777Y61990458D01*
X47780795Y61965723D01*
X47941855Y61899010D01*
X48112835Y61865000D01*
X48287165Y61865000D01*
X48458145Y61899010D01*
X48575000Y61947413D01*
X48691855Y61899010D01*
X48862835Y61865000D01*
X49037165Y61865000D01*
X49208145Y61899010D01*
X49325000Y61947413D01*
X49441855Y61899010D01*
X49612835Y61865000D01*
X49787165Y61865000D01*
X49958145Y61899010D01*
X50119205Y61965723D01*
X50156483Y61990631D01*
X50235606Y61948561D01*
M02*
